<?xml version="1.0" encoding="UTF-8"?>
<svg version="1.1" xmlns="http://www.w3.org/2000/svg" width="612" height="408">
<path d="M0 0 C2 2 2 2 2.375 4.3125 C1.76559337 8.67991421 -0.84486679 10.98488294 -4.0625 13.8125 C-6 15 -6 15 -9 15 C-9 16.98 -9 18.96 -9 21 C-9.78503906 21.29132813 -10.57007813 21.58265625 -11.37890625 21.8828125 C-20.03827721 25.26156092 -26.55035936 28.09194519 -30.4375 36.875 C-33.08595252 44.55665883 -32.58723941 50.21454261 -29.32421875 57.66796875 C-26.1654899 63.23068592 -21.18746652 66.5752043 -15.16796875 68.53125 C-7.14482253 70.26598432 -0.02752148 69.1152127 6.91015625 64.81640625 C12.17457211 60.87088863 14.02566794 56.13134279 16 50 C16.4125 48.80375 16.825 47.6075 17.25 46.375 C17.4975 45.59125 17.745 44.8075 18 44 C19.0209375 43.9071875 19.0209375 43.9071875 20.0625 43.8125 C23.42953234 42.88119318 25.25704999 41.4145461 27.86328125 39.15625 C31.13095081 37.38800468 34.31423734 37.336111 38 37 C38.83031268 58.93941572 38.83031268 58.93941572 34 67 C33.5875 67.75023437 33.175 68.50046875 32.75 69.2734375 C26.25875699 80.07988183 16.54694874 87.04024254 4.78515625 91.11328125 C0.30294281 92.1632941 -3.79232935 92.29392336 -8.375 92.25 C-9.57382813 92.26160156 -9.57382813 92.26160156 -10.796875 92.2734375 C-24.97962685 92.22753863 -35.1239969 87.02008788 -45.1875 77.16796875 C-51.71329065 70.24634428 -56.07244711 60.44417484 -57 51 C-57.12181641 49.7625 -57.12181641 49.7625 -57.24609375 48.5 C-57.68142773 39.42394609 -55.35701149 29.98785439 -51 22 C-50.34 22 -49.68 22 -49 22 C-48.938125 21.443125 -48.87625 20.88625 -48.8125 20.3125 C-47.63433878 16.95927191 -45.62162281 15.39850598 -43 13 C-42.39671875 12.42765625 -41.7934375 11.8553125 -41.171875 11.265625 C-36.77404454 7.2140804 -32.51589646 4.30410865 -27 2 C-26.0925 1.608125 -25.185 1.21625 -24.25 0.8125 C-16.24423889 -1.18894028 -8.10896407 -1.43868717 0 0 Z M-19 75 C-17.16116119 77.28728734 -17.16116119 77.28728734 -14.375 77.125 C-13.59125 77.08375 -12.8075 77.0425 -12 77 C-14.64738916 75.5393715 -15.89448334 75 -19 75 Z " fill="#8F43D4" transform="translate(190,158)"/>
<path d="M0 0 C1.175625 0.0825 2.35125 0.165 3.5625 0.25 C5.72801116 3.49826674 6.11406953 4.48094157 5.5625 8.25 C3.60032203 10.79356403 2.15636303 12.0368184 -0.875 13.125 C-4.39197488 14.66903775 -6.45471112 17.04425009 -8.4375 20.25 C-9.34680575 22.58888437 -9.89555834 24.78662882 -10.4375 27.25 C-10.1075 27.58 -9.7775 27.91 -9.4375 28.25 C-9.145439 30.69564214 -8.92219632 33.10812844 -8.75 35.5625 C-8.69005859 36.23990234 -8.63011719 36.91730469 -8.56835938 37.61523438 C-8.09625098 44.23121911 -8.09625098 44.23121911 -10.4375 47.25 C-13.5625 48 -13.5625 48 -16.4375 48.25 C-19.15033481 44.18074779 -18.83692335 41.01862567 -18.4375 36.25 C-17.49626859 32.34026955 -16.57886538 29.82020804 -13.4375 27.25 C-14.22125 27.0025 -15.005 26.755 -15.8125 26.5 C-18.76067108 25.09610901 -19.3399777 24.24324263 -20.4375 21.25 C-23.72676495 20.74803706 -23.72676495 20.74803706 -27.4375 21.25 C-30.54817753 24.22543068 -32.93152823 26.8649113 -33.4375 31.25 C-34.0975 31.25 -34.7575 31.25 -35.4375 31.25 C-35.7675 32.24 -36.0975 33.23 -36.4375 34.25 C-38.5 34.9375 -38.5 34.9375 -40.4375 35.25 C-39.30266076 38.65451771 -38.88472063 38.8505564 -35.875 40.4375 C-34.740625 41.035625 -33.60625 41.63375 -32.4375 42.25 C-32.41623047 40.80367187 -32.41623047 40.80367187 -32.39453125 39.328125 C-32.32298828 37.43320313 -32.32298828 37.43320313 -32.25 35.5 C-32.21519531 34.24703125 -32.18039063 32.9940625 -32.14453125 31.703125 C-31.4375 28.25 -31.4375 28.25 -29.13671875 25.734375 C-26.4375 24.25 -26.4375 24.25 -24.125 24.5 C-23.568125 24.7475 -23.01125 24.995 -22.4375 25.25 C-21.84930607 31.76214707 -21.34873542 38.27440383 -21.1875 44.8125 C-21.16171875 45.76253906 -21.1359375 46.71257812 -21.109375 47.69140625 C-21.49892325 50.72895511 -22.29996679 52.08214717 -24.4375 54.25 C-27.125 54.5 -27.125 54.5 -29.4375 54.25 C-30.4275 51.94 -31.4175 49.63 -32.4375 47.25 C-33.015 47.62125 -33.5925 47.9925 -34.1875 48.375 C-34.93 48.66375 -35.6725 48.9525 -36.4375 49.25 C-37.77083333 48.58333333 -39.10416667 47.91666667 -40.4375 47.25 C-44.4708245 46.65000131 -47.43425227 46.62297017 -50.9375 48.8125 C-53.02142818 52.19888329 -52.99552097 54.34385318 -52.4375 58.25 C-50.40354727 61.22270015 -48.97906347 62.07340322 -45.5625 63.1875 C-42.32124771 63.49461419 -42.32124771 63.49461419 -39.3125 61.6875 C-36.4375 60.25 -36.4375 60.25 -34.125 60.8125 C-32.10095712 62.53668468 -31.78369039 63.65357204 -31.4375 66.25 C-34.72554981 69.16227269 -37.03635603 70.74701212 -41.4375 71.25 C-41.4375 72.57 -41.4375 73.89 -41.4375 75.25 C-43.0875 74.92 -44.7375 74.59 -46.4375 74.25 C-46.4375 73.26 -46.4375 72.27 -46.4375 71.25 C-47.2625 71.229375 -48.0875 71.20875 -48.9375 71.1875 C-53.82329143 69.87880587 -57.13910858 67.05220299 -60.4375 63.25 C-62.31517907 58.0171239 -61.9019386 52.77232651 -60.3125 47.5625 C-58.14122048 43.72657286 -56.06370854 41.73857449 -52.4375 39.25 C-51.385625 39.064375 -50.33375 38.87875 -49.25 38.6875 C-46.18075011 37.51740938 -46.18075011 37.51740938 -45.39453125 34.46484375 C-44.63191385 31.40363304 -43.97915809 28.35740692 -43.4375 25.25 C-42.32375 25.0025 -41.21 24.755 -40.0625 24.5 C-36.39134802 23.63994661 -36.39134802 23.63994661 -35 21.125 C-34.814375 20.50625 -34.62875 19.8875 -34.4375 19.25 C-33.7775 19.25 -33.1175 19.25 -32.4375 19.25 C-32.355 17.991875 -32.2725 16.73375 -32.1875 15.4375 C-31.81480266 12.5580301 -31.62808025 11.48293142 -29.75 9.1875 C-26.42278207 7.83862786 -24.80396279 7.98757646 -21.4375 9.25 C-19.69535538 11.4891368 -18.66337821 13.6567961 -17.4375 16.25 C-12.62757949 14.8353175 -9.40214833 12.22083201 -6.4375 8.25 C-5.4726228 5.9094563 -4.97495745 3.74184817 -4.4375 1.25 C-3.4375 0.25 -3.4375 0.25 0 0 Z " fill="#B58AED" transform="translate(228.4375,148.75)"/>
<path d="M0 0 C2.44873413 2.44873413 2.75105297 4.2446809 3.6875 7.5625 C6.50914832 16.24609666 11.01657808 22.37130081 18.91015625 27.02734375 C27.36115885 30.96061412 37.23285622 31.53558889 46.2421875 29.13671875 C48.05797269 28.44511082 49.86180637 27.72080256 51.6484375 26.95703125 C54.78384266 25.68099426 57.64385384 25.2983241 61 25 C61.99 26.32 62.98 27.64 64 29 C60.9107201 33.06019644 59.00970974 35.46925536 54 37 C53.67 37.33 53.34 37.66 53 38 C51.53094587 38.52897448 50.0496041 39.02412669 48.5625 39.5 C46.27439105 40.23454541 44.14983418 40.92508291 42 42 C39.11629667 42.07194869 36.25760336 42.09291708 33.375 42.0625 C32.57320312 42.05798828 31.77140625 42.05347656 30.9453125 42.04882812 C28.96350994 42.03703168 26.98174567 42.01909605 25 42 C25 42.33 25 42.66 25 43 C12.65101892 42.32641921 4.15236291 34.7233928 -4 26 C-5.77504611 23.32274369 -6.86097292 21.01842177 -8 18 C-7.34 18 -6.68 18 -6 18 C-6.495 16.865625 -6.99 15.73125 -7.5 14.5625 C-9.27729575 9.89814168 -9.23229919 5.95571598 -9 1 C-4.545 1.99 -4.545 1.99 0 3 C0 2.01 0 1.02 0 0 Z " fill="#7346A5" transform="translate(146,206)"/>
<path d="M0 0 C5.07375 -0.0309375 5.07375 -0.0309375 10.25 -0.0625 C11.30993164 -0.071604 12.36986328 -0.08070801 13.46191406 -0.09008789 C14.30463867 -0.09258545 15.14736328 -0.09508301 16.015625 -0.09765625 C16.87446289 -0.10289307 17.73330078 -0.10812988 18.61816406 -0.11352539 C21 0 21 0 23.18652344 0.56860352 C25.08467987 1.22518772 25.08467987 1.22518772 27 0 C32.44481107 -0.61374682 36.61588533 -1.02424485 41.125 2.3125 C43.62243248 5.89215322 44.12476332 8.4121592 44.09765625 12.66796875 C44.09443359 13.56064453 44.09121094 14.45332031 44.08789062 15.37304688 C44.07532227 16.76620117 44.07532227 16.76620117 44.0625 18.1875 C44.05798828 19.12787109 44.05347656 20.06824219 44.04882812 21.03710938 C44.03704645 23.35810008 44.01911114 25.67905807 44 28 C41.03 28 38.06 28 35 28 C34.34 21.73 33.68 15.46 33 9 C31.35 9 29.7 9 28 9 C26.48578999 10.51421001 26.78690144 11.92472768 26.68359375 14.03515625 C26.64169922 14.84404297 26.59980469 15.65292969 26.55664062 16.48632812 C26.51732422 17.33646484 26.47800781 18.18660156 26.4375 19.0625 C26.39431641 19.91650391 26.35113281 20.77050781 26.30664062 21.65039062 C26.20023298 23.76672037 26.09958269 25.88333813 26 28 C23.03 28 20.06 28 17 28 C16.505 18.1 16.505 18.1 16 8 C13.69 8.33 11.38 8.66 9 9 C9 15.27 9 21.54 9 28 C6.03 28 3.06 28 0 28 C0 18.76 0 9.52 0 0 Z " fill="#EDECEE" transform="translate(364,192)"/>
<path d="M0 0 C3.70791544 -0.14592789 7.41508726 -0.23427895 11.125 -0.3125 C12.69507813 -0.3753418 12.69507813 -0.3753418 14.296875 -0.43945312 C23.02787629 -0.57760188 23.02787629 -0.57760188 26.6171875 2.33203125 C30.27735181 6.43021522 31.27686023 8.50501759 31.25 13.9375 C31.25515625 14.97777344 31.2603125 16.01804688 31.265625 17.08984375 C31.00629936 19.93098495 30.46519702 21.58707634 29 24 C28.34 24 27.68 24 27 24 C26.67 24.99 26.34 25.98 26 27 C20.5986748 29.76991036 15.80557496 28.78453716 10 28 C9.67 31.96 9.34 35.92 9 40 C2.84765625 40.09765625 2.84765625 40.09765625 1 40 C0 39 0 39 -0.11352539 35.30639648 C-0.11336624 33.66128708 -0.10766988 32.01617269 -0.09765625 30.37109375 C-0.0962413 29.50686295 -0.09482635 28.64263214 -0.09336853 27.75221252 C-0.08775239 24.98060708 -0.07519719 22.2090812 -0.0625 19.4375 C-0.05748708 17.5631522 -0.05292381 15.68880315 -0.04882812 13.81445312 C-0.03777772 9.20960456 -0.0205023 4.60481579 0 0 Z M10 9.625 C8.63168992 12.87473645 8.9354496 14.66440876 10 18 C11.63450124 20.05945016 11.63450124 20.05945016 14 21 C16.81900839 20.8624874 18.45769347 20.35530428 20.8125 18.8125 C22.58260835 16.11075568 22.39415803 14.15326426 22 11 C21.06402685 8.98048938 21.06402685 8.98048938 19 8 C14.12781356 7.35387532 14.12781356 7.35387532 10 9.625 Z " fill="#7F8084" transform="translate(444,192)"/>
<path d="M0 0 C1.91015625 1.09765625 1.91015625 1.09765625 4.53515625 3.09765625 C4.03683901 6.78520382 3.43447982 8.70256287 0.53515625 11.09765625 C-0.26921875 10.76765625 -1.07359375 10.43765625 -1.90234375 10.09765625 C-6.20461581 8.89000093 -10.02969002 8.41972299 -14.46484375 9.09765625 C-17.96374379 11.21157502 -19.17063061 12.21501684 -20.46484375 16.09765625 C-20.83352955 21.07491451 -20.62940683 24.1419524 -17.46484375 28.09765625 C-14.04556181 30.6621177 -10.61465155 30.39407109 -6.46484375 30.09765625 C-4.31456071 29.14786728 -4.31456071 29.14786728 -2.46484375 28.09765625 C-1.14484375 28.09765625 0.17515625 28.09765625 1.53515625 28.09765625 C3.41015625 30.34765625 3.41015625 30.34765625 4.53515625 33.09765625 C3.57485353 36.45871576 2.51815054 37.10899339 -0.46484375 39.09765625 C-8.24359096 40.41717014 -16.51342341 41.32858306 -23.3984375 36.8359375 C-27.25615 33.78024423 -29.96311366 30.86785771 -31.46484375 26.09765625 C-32.30329395 18.67737201 -32.02311663 12.22979534 -27.46484375 6.09765625 C-20.12493162 -1.0491003 -9.79339733 -3.58522153 0 0 Z " fill="#DADADE" transform="translate(279.46484375,180.90234375)"/>
<path d="M0 0 C2 2 2 2 2.375 4.3125 C1.76559337 8.67991421 -0.84486679 10.98488294 -4.0625 13.8125 C-6 15 -6 15 -9 15 C-8.979375 15.969375 -8.95875 16.93875 -8.9375 17.9375 C-9 21 -9 21 -10 22 C-11.84891946 22.23363881 -13.70488031 22.41303635 -15.5625 22.5625 C-17.08037109 22.68818359 -17.08037109 22.68818359 -18.62890625 22.81640625 C-19.41136719 22.87699219 -20.19382813 22.93757813 -21 23 C-21.495 21.515 -21.495 21.515 -22 20 C-28.45027515 20.26327654 -31.47915791 22.50664023 -36 27 C-34.63620082 22.53665723 -32.72440668 20.72517562 -29 18 C-27.9826127 17.01769502 -26.97403883 16.02530403 -26 15 C-26.66 14.34 -27.32 13.68 -28 13 C-28.99 13.495 -28.99 13.495 -30 14 C-30.66 13.01 -31.32 12.02 -32 11 C-33.61265753 11.88045655 -35.21484475 12.78010496 -36.8125 13.6875 C-37.70582031 14.18636719 -38.59914062 14.68523437 -39.51953125 15.19921875 C-42.27582581 17.2002452 -43.34547471 19.06546948 -45 22 C-45.99 22.66 -46.98 23.32 -48 24 C-48.72382467 26.05925139 -48.72382467 26.05925139 -49 28 C-49.66 28 -50.32 28 -51 28 C-51.12375 28.94875 -51.2475 29.8975 -51.375 30.875 C-52 34 -52 34 -54 36 C-53.88512252 34.41590006 -53.75765492 32.83271037 -53.625 31.25 C-53.55539063 30.36828125 -53.48578125 29.4865625 -53.4140625 28.578125 C-53.00149945 26.00933618 -52.28839043 24.24158985 -51 22 C-50.34 22 -49.68 22 -49 22 C-48.938125 21.443125 -48.87625 20.88625 -48.8125 20.3125 C-47.63433878 16.95927191 -45.62162281 15.39850598 -43 13 C-42.39671875 12.42765625 -41.7934375 11.8553125 -41.171875 11.265625 C-36.77404454 7.2140804 -32.51589646 4.30410865 -27 2 C-26.0925 1.608125 -25.185 1.21625 -24.25 0.8125 C-16.24423889 -1.18894028 -8.10896407 -1.43868717 0 0 Z " fill="#BC6DF2" transform="translate(190,158)"/>
<path d="M0 0 C5.259375 0.12375 5.259375 0.12375 10.625 0.25 C10.625 9.49 10.625 18.73 10.625 28.25 C7.655 28.25 4.685 28.25 1.625 28.25 C-0.10781555 28.42541498 -1.83862297 28.62666931 -3.5625 28.875 C-7.69323032 29.31048785 -10.6011101 29.22679947 -14.375 27.25 C-18.230955 23.0814 -19.52454776 20.54684064 -19.5625 14.9375 C-19.57667969 13.99261719 -19.59085937 13.04773438 -19.60546875 12.07421875 C-19.23108847 7.48647391 -18.32920379 5.15788321 -14.9609375 1.953125 C-9.90851834 -0.44649891 -5.50694508 -0.18332149 0 0 Z M-9.375 9.25 C-10.15311718 13.06984796 -10.61886556 15.51840331 -9.375 19.25 C-6.92816737 20.99773759 -5.76076387 21.29592427 -2.75 20.9375 C-0.38559813 20.33066352 -0.38559813 20.33066352 1.625 19.25 C2.65079886 15.7780654 2.82204585 13.81650682 1.625 10.375 C-0.30049683 7.86615685 -0.30049683 7.86615685 -3.9375 7.875 C-7.2300076 8.0326798 -7.2300076 8.0326798 -9.375 9.25 Z " fill="#D5D6D9" transform="translate(429.375,191.75)"/>
<path d="M0 0 C3.8359695 1.55234886 6.23189309 3.76434976 8.4375 7.3125 C9.79187942 13.78342391 9.57926552 18.3754399 6 24 C3.98702043 26.4826748 2.73378376 27.76201608 -0.3125 28.75 C-7.80323228 29.4468123 -13.3360621 28.98900197 -19.375 24.0625 C-22.61297969 19.95275655 -22.58564453 15.09510742 -22 10 C-20.5 6.5 -20.5 6.5 -19 4 C-18.34 4 -17.68 4 -17 4 C-17 3.34 -17 2.68 -17 2 C-11.78663643 -1.15846114 -5.88056261 -0.70108897 0 0 Z M-11.9375 9.5625 C-13.47101201 13.08055696 -13.01368293 15.35074147 -12 19 C-10.33333333 20.66666667 -10.33333333 20.66666667 -8 21 C-5.34508736 20.68393897 -3.38794754 20.19397377 -1 19 C-0.16250815 15.85940555 0.27719163 13.78893001 -0.8125 10.6875 C-1.90687325 8.84902178 -1.90687325 8.84902178 -4 8 C-8.30845974 7.50889817 -8.30845974 7.50889817 -11.9375 9.5625 Z " fill="#C7C8CB" transform="translate(307,192)"/>
<path d="M0 0 C0.433125 0.495 0.86625 0.99 1.3125 1.5 C2.99740483 3.33218192 2.99740483 3.33218192 6 3 C6.33 3.66 6.66 4.32 7 5 C4.84375786 7.23610296 2.71292752 9.22182874 0.25 11.125 C-0.4925 11.74375 -1.235 12.3625 -2 13 C-2 13.66 -2 14.32 -2 15 C-0.9790625 13.7625 -0.9790625 13.7625 0.0625 12.5 C3 10 3 10 6.8125 9.6875 C7.864375 9.790625 8.91625 9.89375 10 10 C10.495 10.99 10.495 10.99 11 12 C13.64 12 16.28 12 19 12 C18.43410156 12.27070313 17.86820313 12.54140625 17.28515625 12.8203125 C14.90194125 14.05062178 12.6828225 15.40851187 10.4375 16.875 C9.67308594 17.36742187 8.90867188 17.85984375 8.12109375 18.3671875 C5.94077058 20.04559465 4.53671034 21.73175663 3 24 C1.68 23.67 0.36 23.34 -1 23 C-0.95875 23.94875 -0.9175 24.8975 -0.875 25.875 C-1 29 -1 29 -3 31 C-3.33 30.67 -3.66 30.34 -4 30 C-4.66 30.99 -5.32 31.98 -6 33 C-5.58846263 28.02906176 -5.20399168 23.55491614 -3 19 C-3.66 19 -4.32 19 -5 19 C-5.19335938 19.60328125 -5.38671875 20.2065625 -5.5859375 20.828125 C-5.84632813 21.62734375 -6.10671875 22.4265625 -6.375 23.25 C-6.75785156 24.43335938 -6.75785156 24.43335938 -7.1484375 25.640625 C-7.95173667 27.86627958 -8.89711662 29.90931672 -10 32 C-10.125 26.25 -10.125 26.25 -9 24 C-9.7425 24.20625 -10.485 24.4125 -11.25 24.625 C-14.32330841 25.04408751 -15.42786866 24.61949011 -18 23 C-18 23.99 -18 24.98 -18 26 C-18.66 26 -19.32 26 -20 26 C-20.05869332 29.49992803 -20.09382709 32.9997272 -20.125 36.5 C-20.14175781 37.48226562 -20.15851563 38.46453125 -20.17578125 39.4765625 C-20.21499874 45.35918665 -19.70432638 50.36364503 -18 56 C-18.99 55.67 -19.98 55.34 -21 55 C-21.9140625 53.109375 -21.9140625 53.109375 -22.625 50.75 C-22.98464844 49.59757812 -22.98464844 49.59757812 -23.3515625 48.421875 C-25.7665127 39.40218149 -25.69819521 30.93777163 -23 22 C-22.34 22.66 -21.68 23.32 -21 24 C-20.34 22.02 -19.68 20.04 -19 18 C-18.34 18 -17.68 18 -17 18 C-16.67 16.35 -16.34 14.7 -16 13 C-15.01 12.67 -14.02 12.34 -13 12 C-12.71125 11.236875 -12.4225 10.47375 -12.125 9.6875 C-9.90495248 4.38405315 -5.00169273 2.32636871 0 0 Z " fill="#AA52EB" transform="translate(158,168)"/>
<path d="M0 0 C0.82950133 21.91797737 0.82950133 21.91797737 -4 30 C-4.53753906 30.95132813 -4.53753906 30.95132813 -5.0859375 31.921875 C-6.125 33.625 -6.125 33.625 -8 36 C-8.66 36 -9.32 36 -10 36 C-10.5625 34.0625 -10.5625 34.0625 -11 32 C-10.67 31.67 -10.34 31.34 -10 31 C-12.48770135 29.43366952 -13.65552204 28.95899072 -16.625 29.3125 C-18.98940187 29.91933648 -18.98940187 29.91933648 -21 31 C-20.67 29.68 -20.34 28.36 -20 27 C-19.34 27 -18.68 27 -18 27 C-18.33 26.34 -18.66 25.68 -19 25 C-19.99 25 -20.98 25 -22 25 C-22.33 25.99 -22.66 26.98 -23 28 C-23.99 27.01 -24.98 26.02 -26 25 C-25.319375 23.2984375 -25.319375 23.2984375 -24.625 21.5625 C-23.40565066 18.4101729 -22.71163366 15.45892237 -22.1875 12.125 C-21.7109375 9.8359375 -21.7109375 9.8359375 -21 8 C-18.3125 6.75 -18.3125 6.75 -15 6 C-13.11806976 4.79987076 -11.37702348 3.48748716 -9.61328125 2.12109375 C-6.47610647 -0.05897686 -3.68767654 -0.09966693 0 0 Z " fill="#BFAAD7" transform="translate(228,195)"/>
<path d="M0 0 C3.403125 -0.04125 6.80625 -0.0825 10.3125 -0.125 C11.91605347 -0.15231201 11.91605347 -0.15231201 13.55200195 -0.18017578 C14.81983521 -0.18766846 14.81983521 -0.18766846 16.11328125 -0.1953125 C16.97735596 -0.20578613 17.84143066 -0.21625977 18.73168945 -0.22705078 C21 0 21 0 24 2 C24 2.66 24 3.32 24 4 C24.66 4 25.32 4 26 4 C27.25248502 6.50497004 27.11374406 8.20853274 27.09765625 11.0078125 C27.09443359 11.99394531 27.09121094 12.98007813 27.08789062 13.99609375 C27.07951172 15.02863281 27.07113281 16.06117188 27.0625 17.125 C27.05798828 18.16527344 27.05347656 19.20554688 27.04882812 20.27734375 C27.03701952 22.85161962 27.02055075 25.42578146 27 28 C24.03 28 21.06 28 18 28 C17.93941406 26.71222656 17.87882812 25.42445313 17.81640625 24.09765625 C17.73201753 22.41925841 17.6473687 20.74087364 17.5625 19.0625 C17.52318359 18.21236328 17.48386719 17.36222656 17.44335938 16.48632812 C17.40146484 15.67744141 17.35957031 14.86855469 17.31640625 14.03515625 C17.27974854 13.2862915 17.24309082 12.53742676 17.20532227 11.76586914 C17.18228937 9.97538674 17.18228937 9.97538674 16 9 C14.02 9 12.04 9 10 9 C9.67 15.27 9.34 21.54 9 28 C6.03 28 3.06 28 0 28 C0 18.76 0 9.52 0 0 Z " fill="#B9BABD" transform="translate(333,192)"/>
<path d="M0 0 C0.99 0.33 1.98 0.66 3 1 C3.73046875 2.84765625 3.73046875 2.84765625 4.1875 5.0625 C4.34605469 5.79597656 4.50460938 6.52945313 4.66796875 7.28515625 C4.83232422 8.13400391 4.83232422 8.13400391 5 9 C5.66 8.34 6.32 7.68 7 7 C7.66 7 8.32 7 9 7 C9.20753906 7.65226563 9.41507813 8.30453125 9.62890625 8.9765625 C12.18249769 16.22064199 15.12096826 20.332255 21.87890625 24.02734375 C28.37435068 26.87484161 35.45494258 27.0627556 42.1875 24.875 C47.32975014 22.69501972 51.10399139 18.89600861 55 15 C54.505 17.475 54.505 17.475 54 20 C54.66 20.33 55.32 20.66 56 21 C56.33 20.34 56.66 19.68 57 19 C58.32 19 59.64 19 61 19 C61 19.66 61 20.32 61 21 C60.34 21 59.68 21 59 21 C58.96261719 21.57492188 58.92523438 22.14984375 58.88671875 22.7421875 C57.55377242 26.13620942 54.83643898 27.37131543 51.8125 29.125 C50.68457031 29.80820313 49.55664062 30.49140625 48.39453125 31.1953125 C41.75575091 34.72479065 35.20080563 36.52855219 27.8203125 34.359375 C26.4672878 33.83858813 25.12272782 33.29509712 23.7890625 32.7265625 C21.86346921 31.87808096 21.86346921 31.87808096 19.125 31.4375 C17 31 17 31 15 29 C14.2575 28.608125 13.515 28.21625 12.75 27.8125 C5.91934627 23.31047822 2.06964935 16.85039408 0 9 C-0.28377355 5.90595293 -0.20099732 3.11545846 0 0 Z " fill="#7145AC" transform="translate(149,201)"/>
<path d="M0 0 C2.44873413 2.44873413 2.75105297 4.2446809 3.6875 7.5625 C6.46640308 16.11454858 10.967541 22.5274399 18.8671875 27.00390625 C22.46905387 28.68609659 26.18096863 29.9126369 30 31 C29.34 31.99 28.68 32.98 28 34 C27.071875 33.7215625 27.071875 33.7215625 26.125 33.4375 C23.95839822 32.76313824 23.95839822 32.76313824 22 34 C22 33.34 22 32.68 22 32 C19.525 32.495 19.525 32.495 17 33 C16.67 34.32 16.34 35.64 16 37 C8.62747991 36.17206994 3.79113722 30.16214728 -0.91015625 24.8359375 C-3.88757534 21.04649502 -5.69198746 17.68704492 -7 13 C-7.66 12.01 -8.32 11.02 -9 10 C-9.2610788 6.97670744 -9.08815181 4.04123758 -9 1 C-4.545 1.99 -4.545 1.99 0 3 C0 2.01 0 1.02 0 0 Z " fill="#410E89" transform="translate(146,206)"/>
<path d="M0 0 C3.62542565 4.10245534 4.68353992 6.26435775 4.75 11.6875 C4.77835937 12.739375 4.80671875 13.79125 4.8359375 14.875 C4.375 17.6875 4.375 17.6875 2.3515625 19.5625 C1.69929688 19.93375 1.04703125 20.305 0.375 20.6875 C0.045 20.0275 -0.285 19.3675 -0.625 18.6875 C-1.615 19.0175 -2.605 19.3475 -3.625 19.6875 C-4.285 19.3575 -4.945 19.0275 -5.625 18.6875 C-5.60179687 17.98882812 -5.57859375 17.29015625 -5.5546875 16.5703125 C-5.53664063 15.66023438 -5.51859375 14.75015625 -5.5 13.8125 C-5.47679687 12.90757812 -5.45359375 12.00265625 -5.4296875 11.0703125 C-5.38175164 8.49943006 -5.38175164 8.49943006 -7.625 6.6875 C-11.125 6.27083333 -11.125 6.27083333 -14.625 6.6875 C-15.615 8.1725 -15.615 8.1725 -16.625 9.6875 C-17.285 9.6875 -17.945 9.6875 -18.625 9.6875 C-18.955 10.3475 -19.285 11.0075 -19.625 11.6875 C-22.595 11.1925 -22.595 11.1925 -25.625 10.6875 C-25.625 6.7275 -25.625 2.7675 -25.625 -1.3125 C-4.65369927 -3.77971185 -4.65369927 -3.77971185 0 0 Z " fill="#DEDEDE" transform="translate(470.625,194.3125)"/>
<path d="M0 0 C0.33 0 0.66 0 1 0 C1 3.63 1 7.26 1 11 C5.0100934 11.17864631 5.0100934 11.17864631 9 11 C9.66 10.34 10.32 9.68 11 9 C11.4125 9.78375 11.825 10.5675 12.25 11.375 C14.1190631 14.17859466 14.83068917 15.03159947 18 16 C22.40370735 16.31455052 25.16491436 16.11590932 29 14 C30.32 14 31.64 14 33 14 C34.875 16.25 34.875 16.25 36 19 C35.03969728 22.36105951 33.98299429 23.01133714 31 25 C23.22125279 26.31951389 14.95142034 27.23092681 8.06640625 22.73828125 C4.20869375 19.68258798 1.50173009 16.77020146 0 12 C-0.22642917 7.98602835 -0.17541594 4.01507605 0 0 Z " fill="#919092" transform="translate(248,195)"/>
<path d="M0 0 C2.14720899 2.14720899 2.5434221 3.07790143 3 6 C2.67 6.66 2.34 7.32 2 8 C2.66 8.33 3.32 8.66 4 9 C-4.29709619 18.15295711 -14.4539439 26.31479768 -27.20947266 27.14355469 C-43.50938969 27.79542229 -43.50938969 27.79542229 -49 25 C-49 24.67 -49 24.34 -49 24 C-48.41621582 24.01571045 -47.83243164 24.0314209 -47.23095703 24.04760742 C-44.52907405 24.11082028 -41.82734741 24.14925923 -39.125 24.1875 C-37.74828125 24.22520508 -37.74828125 24.22520508 -36.34375 24.26367188 C-29.89965729 24.33174328 -23.94547518 23.65239618 -18 21 C-17.67 20.34 -17.34 19.68 -17 19 C-17.66 18.67 -18.32 18.34 -19 18 C-18.01 18 -17.02 18 -16 18 C-16 18.66 -16 19.32 -16 20 C-11.77728219 17.46636932 -9.21689838 15.43379675 -7 11 C-7.66 10.34 -8.32 9.68 -9 9 C-13.50146998 9.19155191 -16.97038082 10.35819637 -21.125 12.0625 C-27.43028153 14.49165575 -33.32715352 14.38191172 -40 14 C-40 13.67 -40 13.34 -40 13 C-38.87464844 12.96132812 -38.87464844 12.96132812 -37.7265625 12.921875 C-27.09330886 12.33262669 -19.37516357 9.47564193 -11 3 C-7.16165929 0.28507608 -4.72795012 -0.52532779 0 0 Z " fill="#9E83BD" transform="translate(216,223)"/>
<path d="M0 0 C2.64 0 5.28 0 8 0 C8 9.24 8 18.48 8 28 C5.03 28 2.06 28 -1 28 C-2.73281555 28.17541498 -4.46362297 28.37666931 -6.1875 28.625 C-10.31823032 29.06048785 -13.2261101 28.97679947 -17 27 C-20.90188158 22.78174964 -22.14981397 20.23801572 -22.1875 14.5625 C-22.20167969 13.59441406 -22.21585937 12.62632812 -22.23046875 11.62890625 C-22 9 -22 9 -20 6 C-20.33 10.29 -20.66 14.58 -21 19 C-19.35 18.34 -17.7 17.68 -16 17 C-14.67323492 16.64141484 -13.34164079 16.2981424 -12 16 C-12 16.99 -12 17.98 -12 19 C-6.44506076 20.02703748 -6.44506076 20.02703748 -1 19 C-0.87625 18.030625 -0.7525 17.06125 -0.625 16.0625 C-0.315625 14.5465625 -0.315625 14.5465625 0 13 C0.66 12.67 1.32 12.34 2 12 C1.34 13.98 0.68 15.96 0 18 C0.78375 17.814375 1.5675 17.62875 2.375 17.4375 C5 17 5 17 7 18 C7 12.39 7 6.78 7 1 C4.69 1 2.38 1 0 1 C0 0.67 0 0.34 0 0 Z " fill="#868789" transform="translate(432,192)"/>
<path d="M0 0 C1.35546875 1.32421875 1.35546875 1.32421875 2.98046875 3.94921875 C2.98046875 4.60921875 2.98046875 5.26921875 2.98046875 5.94921875 C2.32046875 5.94921875 1.66046875 5.94921875 0.98046875 5.94921875 C0.65046875 6.60921875 0.32046875 7.26921875 -0.01953125 7.94921875 C-2.32953125 7.61921875 -4.63953125 7.28921875 -7.01953125 6.94921875 C-7.01953125 7.93921875 -7.01953125 8.92921875 -7.01953125 9.94921875 C-6.38015625 10.07296875 -5.74078125 10.19671875 -5.08203125 10.32421875 C-4.40140625 10.53046875 -3.72078125 10.73671875 -3.01953125 10.94921875 C-2.68953125 11.60921875 -2.35953125 12.26921875 -2.01953125 12.94921875 C-2.90640625 12.92859375 -3.79328125 12.90796875 -4.70703125 12.88671875 C-7.9366022 12.84472994 -7.9366022 12.84472994 -10.70703125 13.51171875 C-13.01953125 13.94921875 -13.01953125 13.94921875 -16.01953125 12.94921875 C-15.35953125 12.94921875 -14.69953125 12.94921875 -14.01953125 12.94921875 C-14.34953125 12.28921875 -14.67953125 11.62921875 -15.01953125 10.94921875 C-17.00249571 10.29568927 -17.00249571 10.29568927 -19.33203125 9.88671875 C-24.01953125 8.94921875 -24.01953125 8.94921875 -26.140625 8.33203125 C-28.85419067 7.7791634 -30.57431319 8.79453244 -33.01953125 9.94921875 C-30.24657885 3.71007586 -25.20261358 2.17483771 -19.19921875 -0.13671875 C-13.45044286 -1.78931526 -5.48319957 -2.85296071 0 0 Z " fill="#C680F4" transform="translate(185.01953125,159.05078125)"/>
<path d="M0 0 C0.66 1.32 1.32 2.64 2 4 C3.32 4 4.64 4 6 4 C6.66 2.68 7.32 1.36 8 0 C8.12375 1.60875 8.12375 1.60875 8.25 3.25 C9.07120695 7.35603475 9.61915374 8.62427019 13 11 C16.91621696 12.27702727 18.40209591 12.29895204 22.125 10.4375 C25 9 25 9 27.3125 9.5625 C29.33654288 11.28668468 29.65380961 12.40357204 30 15 C26.71195019 17.91227269 24.40114397 19.49701212 20 20 C20 21.32 20 22.64 20 24 C18.35 23.67 16.7 23.34 15 23 C15 22.01 15 21.02 15 20 C14.175 19.979375 13.35 19.95875 12.5 19.9375 C7.61420857 18.62880587 4.29839142 15.80220299 1 12 C-0.44634869 8.08863767 -0.0686099 4.11659414 0 0 Z " fill="#897AA5" transform="translate(167,200)"/>
<path d="M0 0 C0.8353125 0.37125 0.8353125 0.37125 1.6875 0.75 C2.27569393 7.26214707 2.77626458 13.77440383 2.9375 20.3125 C2.97617188 21.73755859 2.97617188 21.73755859 3.015625 23.19140625 C2.62607675 26.22895511 1.82503321 27.58214717 -0.3125 29.75 C-3 30 -3 30 -5.3125 29.75 C-6.3025 27.44 -7.2925 25.13 -8.3125 22.75 C-9.3025 22.75 -10.2925 22.75 -11.3125 22.75 C-10.82523438 22.2446875 -10.33796875 21.739375 -9.8359375 21.21875 C-7.21086446 16.96478548 -7.94289698 12.16388919 -7.9140625 7.28125 C-7.3125 3.75 -7.3125 3.75 -5.0234375 1.21875 C-2.3125 -0.25 -2.3125 -0.25 0 0 Z " fill="#493175" transform="translate(204.3125,173.25)"/>
<path d="M0 0 C0.33 0.66 0.66 1.32 1 2 C1.99 2.33 2.98 2.66 4 3 C3.67 3.66 3.34 4.32 3 5 C3.33 5.66 3.66 6.32 4 7 C6.33524782 4.74259377 8.18705073 2.7194239 10 0 C10.35238532 6.81278287 9.54822511 10.85718903 5.125 16.3125 C0.97943257 19.60456825 -3.87691268 19.35331637 -9 19 C-13.65559907 17.42183083 -16.78243245 15.73237836 -20 12 C-19 10 -19 10 -17 9 C-16.67 9.99 -16.34 10.98 -16 12 C-15.34 12.33 -14.68 12.66 -14 13 C-13.67 12.34 -13.34 11.68 -13 11 C-12.67 10.67 -12.34 10.34 -12 10 C-12.99 10 -13.98 10 -15 10 C-14.34 7.69 -13.68 5.38 -13 3 C-11 6 -11 6 -11 9 C-6.79405774 9.72795155 -4.19895255 10.04973814 0 9 C0 6.03 0 3.06 0 0 Z " fill="#848587" transform="translate(306,202)"/>
<path d="M0 0 C2.97 0 5.94 0 9 0 C9 9.24 9 18.48 9 28 C6.03 28 3.06 28 0 28 C0 18.76 0 9.52 0 0 Z " fill="#89898F" transform="translate(319,192)"/>
<path d="M0 0 C0.0580476 3.27075883 0.09361165 6.54138524 0.125 9.8125 C0.14175781 10.74126953 0.15851563 11.67003906 0.17578125 12.62695312 C0.18222656 13.51962891 0.18867188 14.41230469 0.1953125 15.33203125 C0.20578613 16.15421143 0.21625977 16.9763916 0.22705078 17.82348633 C0 20 0 20 -2 23 C-2.66 22.67 -3.32 22.34 -4 22 C-4 20.35 -4 18.7 -4 17 C-4.62648437 17.144375 -5.25296875 17.28875 -5.8984375 17.4375 C-6.71570313 17.623125 -7.53296875 17.80875 -8.375 18 C-9.18710938 18.185625 -9.99921875 18.37125 -10.8359375 18.5625 C-13 19 -13 19 -15 19 C-14.71653722 17.08210287 -14.4228972 15.16570817 -14.125 13.25 C-13.88136719 11.64898437 -13.88136719 11.64898437 -13.6328125 10.015625 C-13.05893907 7.28087012 -12.50276787 5.33645887 -11 3 C-7.1232846 0.58782153 -4.50280163 -0.15289649 0 0 Z " fill="#EBE0F5" transform="translate(228,195)"/>
<path d="M0 0 C1.32 0 2.64 0 4 0 C4.05786668 3.79160297 4.09355054 7.58309311 4.125 11.375 C4.14175781 12.45523438 4.15851563 13.53546875 4.17578125 14.6484375 C4.18222656 15.6796875 4.18867188 16.7109375 4.1953125 17.7734375 C4.20578613 18.72653809 4.21625977 19.67963867 4.22705078 20.66162109 C4 23 4 23 2 25 C-0.625 25.125 -0.625 25.125 -3 25 C-5.29186474 21.36211946 -5.26795835 18.2381715 -5.25 14 C-5.25515625 12.783125 -5.2603125 11.56625 -5.265625 10.3125 C-5.01981559 7.24711209 -4.6149234 5.56337048 -3 3 C-2.34 3 -1.68 3 -1 3 C-0.67 2.01 -0.34 1.02 0 0 Z " fill="#443067" transform="translate(228,164)"/>
<path d="M0 0 C1.175625 0.0825 2.35125 0.165 3.5625 0.25 C5.72801116 3.49826674 6.11406953 4.48094157 5.5625 8.25 C3.60032203 10.79356403 2.15636303 12.0368184 -0.875 13.125 C-5.35613225 15.09232635 -7.75918206 18.76416069 -9.75 23.125 C-9.976875 23.82625 -10.20375 24.5275 -10.4375 25.25 C-11.77082095 22.5833581 -11.10852033 21.08319697 -10.4375 18.25 C-12.4175 17.92 -14.3975 17.59 -16.4375 17.25 C-15.715625 16.693125 -14.99375 16.13625 -14.25 15.5625 C-8.8028936 11.08376807 -6.05509268 8.25956828 -4.4375 1.25 C-3.4375 0.25 -3.4375 0.25 0 0 Z " fill="#B299D7" transform="translate(228.4375,148.75)"/>
<path d="M0 0 C3.96 0 7.92 0 12 0 C11.67 0.66 11.34 1.32 11 2 C7.7 1.67 4.4 1.34 1 1 C1.33 3.97 1.66 6.94 2 10 C5.58327753 11.00217064 5.58327753 11.00217064 9 10 C9 15.94 9 21.88 9 28 C6.03 28 3.06 28 0 28 C0 18.76 0 9.52 0 0 Z " fill="#7F8083" transform="translate(333,192)"/>
<path d="M0 0 C3.96 0 7.92 0 12 0 C11.67 0.66 11.34 1.32 11 2 C10.34 2 9.68 2 9 2 C9 2.66 9 3.32 9 4 C8.34 4 7.68 4 7 4 C7 3.34 7 2.68 7 2 C4.03 1.505 4.03 1.505 1 1 C1 4.63 1 8.26 1 12 C2.65 11.67 4.3 11.34 6 11 C6.66 11.33 7.32 11.66 8 12 C8.33 11.01 8.66 10.02 9 9 C9 15.27 9 21.54 9 28 C6.03 28 3.06 28 0 28 C0 18.76 0 9.52 0 0 Z " fill="#A6A6A6" transform="translate(364,192)"/>
<path d="M0 0 C0.33 0.99 0.66 1.98 1 3 C0.67 3.66 0.34 4.32 0 5 C0.66 5.33 1.32 5.66 2 6 C2.33 5.34 2.66 4.68 3 4 C4.32 4 5.64 4 7 4 C7 4.66 7 5.32 7 6 C6.34 6 5.68 6 5 6 C4.96261719 6.57363281 4.92523438 7.14726562 4.88671875 7.73828125 C3.55209787 11.1424464 0.83606794 12.41069547 -2.1875 14.1875 C-2.75275391 14.54263672 -3.31800781 14.89777344 -3.90039062 15.26367188 C-7.5555981 17.4701946 -10.71848295 18.78313589 -15 19 C-15.66 18.34 -16.32 17.68 -17 17 C-16.67 16.67 -16.34 16.34 -16 16 C-18.76223278 13.23776722 -21.20706617 13.42143709 -25 13 C-25 12.67 -25 12.34 -25 12 C-23.74896484 11.88785156 -23.74896484 11.88785156 -22.47265625 11.7734375 C-13.81264383 10.76161474 -6.85203174 8.85390547 -1.2578125 1.8046875 C-0.63519531 0.91136719 -0.63519531 0.91136719 0 0 Z " fill="#7F6CA4" transform="translate(203,216)"/>
<path d="M0 0 C0.2475 0.5775 0.495 1.155 0.75 1.75 C2.26466783 4.4764021 3.46404752 6.14944008 6 8 C9.69432511 7.85387105 9.69432511 7.85387105 13 7 C13 7.66 13 8.32 13 9 C14.32 9.33 15.64 9.66 17 10 C17.33 9.34 17.66 8.68 18 8 C18.99 8 19.98 8 21 8 C21.33 8.66 21.66 9.32 22 10 C21.67 10.66 21.34 11.32 21 12 C20.34 12 19.68 12 19 12 C18.67 12.99 18.34 13.98 18 15 C12.5986748 17.76991036 7.80557496 16.78453716 2 16 C1.67 19.96 1.34 23.92 1 28 C-1.64 28 -4.28 28 -7 28 C-7 27.67 -7 27.34 -7 27 C-4.69 27 -2.38 27 0 27 C-0.33 22.38 -0.66 17.76 -1 13 C0.32 12.67 1.64 12.34 3 12 C2.34 11.34 1.68 10.68 1 10 C-0.87657565 7.23452009 -1.01792881 6.15538306 -0.625 2.75 C-0.41875 1.8425 -0.2125 0.935 0 0 Z " fill="#838486" transform="translate(452,204)"/>
<path d="M0 0 C2.97 0.33 5.94 0.66 9 1 C8.85890014 3.10448938 8.71195825 5.2085877 8.5625 7.3125 C8.48128906 8.48425781 8.40007812 9.65601563 8.31640625 10.86328125 C8 14 8 14 7 17 C4.14615953 18.37407134 2.8365452 17.95284958 -0.25 17.0625 C-1.61125 16.5365625 -1.61125 16.5365625 -3 16 C-3.02696365 14.20841511 -3.04637917 12.41671527 -3.0625 10.625 C-3.07410156 9.62726563 -3.08570313 8.62953125 -3.09765625 7.6015625 C-3 5 -3 5 -2 3 C-1.34 3 -0.68 3 0 3 C0 2.01 0 1.02 0 0 Z " fill="#8536CC" transform="translate(140,191)"/>
<path d="M0 0 C2.83374881 3.20336822 3.5205537 5.78087253 4 10 C4.7425 9.7525 5.485 9.505 6.25 9.25 C9 9 9 9 11.3125 10.8125 C13 13 13 13 13 15 C13.639375 15.28875 14.27875 15.5775 14.9375 15.875 C17 17 17 17 18 19 C17.34 19 16.68 19 16 19 C16.33 19.66 16.66 20.32 17 21 C17.7425 20.814375 18.485 20.62875 19.25 20.4375 C21.96899854 20.00493205 23.46184401 20.00286729 26 21 C26.33 21.66 26.66 22.32 27 23 C28.88263881 23.90343684 28.88263881 23.90343684 31.0625 24.625 C31.79597656 24.88539063 32.52945313 25.14578125 33.28515625 25.4140625 C33.85105469 25.60742188 34.41695312 25.80078125 35 26 C34.34 26.66 33.68 27.32 33 28 C30.9375 27.75 30.9375 27.75 28 27 C26.45887973 26.66414954 24.91716887 26.3310021 23.375 26 C16.49781659 24.49781659 16.49781659 24.49781659 14 22 C13.2575 21.608125 12.515 21.21625 11.75 20.8125 C6.33868122 17.24594899 2.31830665 12.05335625 0 6 C-0.1875 2.625 -0.1875 2.625 0 0 Z " fill="#581DA3" transform="translate(150,208)"/>
<path d="M0 0 C3.90368082 1.53358889 5.9450049 3.33036589 8 7 C8.54831894 11.05756017 8.78075525 14.96992513 8 19 C5.96875 20.8671875 5.96875 20.8671875 4 22 C3.67 21.34 3.34 20.68 3 20 C2.01 20.33 1.02 20.66 0 21 C-0.66 20.67 -1.32 20.34 -2 20 C-1.97679687 19.31292969 -1.95359375 18.62585938 -1.9296875 17.91796875 C-1.91164063 17.01691406 -1.89359375 16.11585938 -1.875 15.1875 C-1.85179687 14.29417969 -1.82859375 13.40085938 -1.8046875 12.48046875 C-1.81714173 9.74597286 -1.81714173 9.74597286 -4 7 C-2.02 6.67 -0.04 6.34 2 6 C2 5.34 2 4.68 2 4 C1.34 3.67 0.68 3.34 0 3 C0 2.01 0 1.02 0 0 Z " fill="#B5B6B8" transform="translate(467,193)"/>
<path d="M0 0 C3.63 0.33 7.26 0.66 11 1 C11 6.61 11 12.22 11 18 C8.69 18 6.38 18 4 18 C4.33 16.35 4.66 14.7 5 13 C4.34 13 3.68 13 3 13 C2.814375 12.360625 2.62875 11.72125 2.4375 11.0625 C1.05753944 8.57873787 1.05753944 8.57873787 -2.625 8.25 C-3.73875 8.1675 -4.8525 8.085 -6 8 C-6 7.67 -6 7.34 -6 7 C-2.535 6.505 -2.535 6.505 1 6 C1.33 5.01 1.66 4.02 2 3 C1.34 2.01 0.68 1.02 0 0 Z " fill="#C0C1C2" transform="translate(428,192)"/>
<path d="M0 0 C0.33 1.32 0.66 2.64 1 4 C1.66 4 2.32 4 3 4 C3 4.66 3 5.32 3 6 C-0.63 6 -4.26 6 -8 6 C-8.66 9.63 -9.32 13.26 -10 17 C-11.98 17 -13.96 17 -16 17 C-16.49303103 12.97357995 -16.86992855 9.4579358 -14.734375 5.87890625 C-9.91988762 0.25810909 -7.25454435 -0.11700878 0 0 Z " fill="#D9C3F1" transform="translate(184,188)"/>
<path d="M0 0 C0.33 0 0.66 0 1 0 C1 3.63 1 7.26 1 11 C5.0100934 11.17864631 5.0100934 11.17864631 9 11 C9.66 10.34 10.32 9.68 11 9 C13.74047054 12.88233327 14.20449598 15.29659249 14 20 C14.33 20.99 14.66 21.98 15 23 C15.66 23 16.32 23 17 23 C17 23.66 17 24.32 17 25 C11.45886518 24.77383123 8.53494332 23.49474924 4.51171875 19.65234375 C-0.91045263 13.72578433 -0.33256191 7.61197265 0 0 Z " fill="#8D8D92" transform="translate(248,195)"/>
<path d="M0 0 C1.175625 0.0825 2.35125 0.165 3.5625 0.25 C4.2225 1.24 4.8825 2.23 5.5625 3.25 C6.2225 3.58 6.8825 3.91 7.5625 4.25 C2.4156808 7.41727335 -1.595756 7.60050464 -7.4375 7.25 C-7.7675 8.9 -8.0975 10.55 -8.4375 12.25 C-11.4075 11.755 -11.4075 11.755 -14.4375 11.25 C-14.4375 7.95 -14.4375 4.65 -14.4375 1.25 C-12.808125 1.270625 -11.17875 1.29125 -9.5 1.3125 C-7.81250659 1.33386068 -6.12358966 1.32205511 -4.4375 1.25 C-3.4375 0.25 -3.4375 0.25 0 0 Z " fill="#E7E7E8" transform="translate(348.4375,191.75)"/>
<path d="M0 0 C0.66 0.33 1.32 0.66 2 1 C2 2.65 2 4.3 2 6 C2.33 5.67 2.66 5.34 3 5 C4 8 4 8 2.890625 10.6640625 C2.34921875 11.64117187 1.8078125 12.61828125 1.25 13.625 C0.71890625 14.60726562 0.1878125 15.58953125 -0.359375 16.6015625 C-2 19 -2 19 -5 20 C-5.33 18.68 -5.66 17.36 -6 16 C-5.34 16 -4.68 16 -4 16 C-4.66 14.35 -5.32 12.7 -6 11 C-6.66 11 -7.32 11 -8 11 C-7.34 9.35 -6.68 7.7 -6 6 C-7.65 6.33 -9.3 6.66 -11 7 C-10.67 5.68 -10.34 4.36 -10 3 C-9.278125 2.87625 -8.55625 2.7525 -7.8125 2.625 C-4.96892741 2.080081 -4.96892741 2.080081 -2.3125 0.875 C-1.549375 0.58625 -0.78625 0.2975 0 0 Z " fill="#C3AFDA" transform="translate(223,211)"/>
<path d="M0 0 C0.66 0.33 1.32 0.66 2 1 C2.36986397 3.47271961 2.60575002 5.82535111 2.75 8.3125 C2.80542969 8.98990234 2.86085937 9.66730469 2.91796875 10.36523438 C3.15720541 14.07340264 3.33597008 16.97830967 1 20 C-2.125 20.75 -2.125 20.75 -5 21 C-8.12500425 16.31249363 -7.38694579 11.37004297 -6.5 5.9375 C-6.335 5.298125 -6.17 4.65875 -6 4 C-5.67 4.99 -5.34 5.98 -5 7 C-3.02 6.67 -1.04 6.34 1 6 C0.67 4.02 0.34 2.04 0 0 Z " fill="#3D2B5E" transform="translate(217,176)"/>
<path d="M0 0 C0.66 0.33 1.32 0.66 2 1 C2.185625 1.969375 2.37125 2.93875 2.5625 3.9375 C4.39617439 10.99569112 11.04511871 16.69728675 16.625 21.0625 C20.29991007 23.17217059 22.82298172 23.56031387 27 24 C29.72840804 24.87904696 32.33885476 25.92620455 35 27 C33.7265625 28.5 33.7265625 28.5 32 30 C20.99077009 30 13.20752632 23.11009524 5.62109375 15.8046875 C2.40081703 12.35884744 0.65491135 9.38551509 -1 5 C-0.34 5 0.32 5 1 5 C0.67 3.35 0.34 1.7 0 0 Z " fill="#6B32BB" transform="translate(139,219)"/>
<path d="M0 0 C0.66 0.33 1.32 0.66 2 1 C1.67 1.66 1.34 2.32 1 3 C1.99 2.34 2.98 1.68 4 1 C6.5 0.6875 6.5 0.6875 9 1 C10.8125 2.5 10.8125 2.5 12 4 C10.68 4.99 9.36 5.98 8 7 C7.01 6.01 6.02 5.02 5 4 C3.38734247 4.88045655 1.78515525 5.78010496 0.1875 6.6875 C-0.70582031 7.18636719 -1.59914062 7.68523437 -2.51953125 8.19921875 C-5.27582581 10.2002452 -6.34547471 12.06546948 -8 15 C-8.99 15.66 -9.98 16.32 -11 17 C-11.72382467 19.05925139 -11.72382467 19.05925139 -12 21 C-12.66 21 -13.32 21 -14 21 C-14.12375 21.94875 -14.2475 22.8975 -14.375 23.875 C-15 27 -15 27 -17 29 C-16.88512252 27.41590006 -16.75765492 25.83271037 -16.625 24.25 C-16.55539063 23.36828125 -16.48578125 22.4865625 -16.4140625 21.578125 C-16.00149945 19.00933618 -15.28839043 17.24158985 -14 15 C-13.34 15 -12.68 15 -12 15 C-11.938125 14.443125 -11.87625 13.88625 -11.8125 13.3125 C-10.64897084 10.00091701 -8.55537113 8.38501305 -6 6 C-4.8919386 4.89974185 -3.7877489 3.79557058 -2.6875 2.6875 C-1.800625 1.800625 -0.91375 0.91375 0 0 Z " fill="#B973EA" transform="translate(153,165)"/>
<path d="M0 0 C0.33 0 0.66 0 1 0 C0.54177532 3.46941546 0.10868317 6.67395049 -1 10 C-1.66 10 -2.32 10 -3 10 C-3.05869332 13.49992803 -3.09382709 16.9997272 -3.125 20.5 C-3.14175781 21.48226562 -3.15851563 22.46453125 -3.17578125 23.4765625 C-3.21499874 29.35918665 -2.70432638 34.36364503 -1 40 C-1.99 39.67 -2.98 39.34 -4 39 C-4.9140625 37.109375 -4.9140625 37.109375 -5.625 34.75 C-5.98464844 33.59757812 -5.98464844 33.59757812 -6.3515625 32.421875 C-8.7665127 23.40218149 -8.69819521 14.93777163 -6 6 C-5.34 6.66 -4.68 7.32 -4 8 C-3.34 6.02 -2.68 4.04 -2 2 C-1.34 2 -0.68 2 0 2 C0 1.34 0 0.68 0 0 Z " fill="#874ECD" transform="translate(141,184)"/>
<path d="M0 0 C0 0.66 0 1.32 0 2 C0.66 2.33 1.32 2.66 2 3 C-5.28571429 6.42857143 -5.28571429 6.42857143 -10 6 C-10.33 7.98 -10.66 9.96 -11 12 C-13.31 12 -15.62 12 -18 12 C-18 8.37 -18 4.74 -18 1 C-15.69 1 -13.38 1 -11 1 C-11.33 1.99 -11.66 2.98 -12 4 C-11.34 4 -10.68 4 -10 4 C-10 3.34 -10 2.68 -10 2 C-6.3558226 -0.4294516 -4.28758728 -0.16179575 0 0 Z " fill="#E0E1E2" transform="translate(383,192)"/>
<path d="M0 0 C0 0.99 0 1.98 0 3 C0.928125 3.28875 1.85625 3.5775 2.8125 3.875 C6 5 6 5 9 7 C8.43628586 10.26954202 7.50037734 11.82575883 5 14 C4.505 13.67 4.01 13.34 3.5 13 C0.00177581 11.60071032 -3.31653827 11.37271741 -7 12 C-9.96731398 13.83656989 -9.96731398 13.83656989 -12 16 C-11.67 14.02 -11.34 12.04 -11 10 C-7.37 10 -3.74 10 0 10 C0 9.34 0 8.68 0 8 C-0.66 8 -1.32 8 -2 8 C-2.33 7.01 -2.66 6.02 -3 5 C-5.00016466 3.79117904 -5.00016466 3.79117904 -7 3 C-4.49955934 -0.00052879 -4.2621484 0 0 0 Z " fill="#D2BAEF" transform="translate(187,184)"/>
<path d="M0 0 C2.64 0 5.28 0 8 0 C8 9.24 8 18.48 8 28 C6.02 28 4.04 28 2 28 C1.67 26.68 1.34 25.36 1 24 C0.01 24.33 -0.98 24.66 -2 25 C-2 24.01 -2 23.02 -2 22 C-1.01 22 -0.02 22 1 22 C1 21.34 1 20.68 1 20 C0.34 20 -0.32 20 -1 20 C-0.74438677 17.6568787 -0.40729228 15.32156597 0 13 C0.66 12.67 1.32 12.34 2 12 C1.34 13.98 0.68 15.96 0 18 C0.78375 17.814375 1.5675 17.62875 2.375 17.4375 C5 17 5 17 7 18 C7 12.39 7 6.78 7 1 C4.69 1 2.38 1 0 1 C0 0.67 0 0.34 0 0 Z " fill="#8F8F94" transform="translate(432,192)"/>
<path d="M0 0 C2 2 2 2 2.22705078 4.24658203 C2.21134033 5.61339111 2.21134033 5.61339111 2.1953125 7.0078125 C2.18564453 8.48701172 2.18564453 8.48701172 2.17578125 9.99609375 C2.15902344 11.02863281 2.14226562 12.06117188 2.125 13.125 C2.11597656 14.16527344 2.10695313 15.20554688 2.09765625 16.27734375 C2.07403747 18.85179092 2.04110149 21.42578212 2 24 C-0.97 24 -3.94 24 -7 24 C-7 18.06 -7 12.12 -7 6 C-6.67 6 -6.34 6 -6 6 C-6 8.97 -6 11.94 -6 15 C-4.68 14.34 -3.36 13.68 -2 13 C-1.34 13 -0.68 13 0 13 C0 8.71 0 4.42 0 0 Z " fill="#818287" transform="translate(358,196)"/>
<path d="M0 0 C0.33 0.66 0.66 1.32 1 2 C1.99 2.33 2.98 2.66 4 3 C3.67 3.66 3.34 4.32 3 5 C3.33 5.66 3.66 6.32 4 7 C6.33524782 4.74259377 8.18705073 2.7194239 10 0 C10.28221274 5.45611302 10.4657972 9.48396122 7 14 C4.08055922 15.37172306 1.13238436 16.25137984 -2 17 C-3.125 11.25 -3.125 11.25 -2 9 C-1.34 9 -0.68 9 0 9 C0 6.03 0 3.06 0 0 Z " fill="#A4A5A7" transform="translate(306,202)"/>
<path d="M0 0 C2.3129482 2.3129482 2.49580975 3.47904875 3.125 6.625 C3.29257813 7.44226563 3.46015625 8.25953125 3.6328125 9.1015625 C3.81457031 10.04128906 3.81457031 10.04128906 4 11 C3.360625 11.12375 2.72125 11.2475 2.0625 11.375 C1.381875 11.58125 0.70125 11.7875 0 12 C-0.33 12.66 -0.66 13.32 -1 14 C-1 13.34 -1 12.68 -1 12 C-2.32 12 -3.64 12 -5 12 C-5.99 12 -6.98 12 -8 12 C-9.71466036 8.57067929 -9.05404056 4.78283935 -9 1 C-4.545 1.99 -4.545 1.99 0 3 C0 2.01 0 1.02 0 0 Z " fill="#5F22A7" transform="translate(146,206)"/>
<path d="M0 0 C0 4.95 0 9.9 0 15 C-1.98 15.33 -3.96 15.66 -6 16 C-6 12 -6 12 -4.5 10.25 C-4.005 9.8375 -3.51 9.425 -3 9 C-3.763125 8.773125 -4.52625 8.54625 -5.3125 8.3125 C-8.5753027 6.71903821 -9.46260709 5.23661664 -11 2 C-11 1.34 -11 0.68 -11 0 C-6.64425167 -1.15299221 -4.83348343 -0.80558057 0 0 Z " fill="#DDC3F8" transform="translate(218,167)"/>
<path d="M0 0 C0.99 0.495 0.99 0.495 2 1 C2.4140625 3.06640625 2.4140625 3.06640625 2.625 5.5625 C2.69976562 6.38878906 2.77453125 7.21507812 2.8515625 8.06640625 C2.92503906 9.02353516 2.92503906 9.02353516 3 10 C5.97 10.495 5.97 10.495 9 11 C9 8.36 9 5.72 9 3 C9.33 3 9.66 3 10 3 C10 8.61 10 14.22 10 20 C7.03 20 4.06 20 1 20 C0.67 13.4 0.34 6.8 0 0 Z " fill="#808184" transform="translate(380,200)"/>
<path d="M0 0 C1.45922693 0.11409593 2.91740598 0.24165544 4.375 0.375 C5.59316406 0.47941406 5.59316406 0.47941406 6.8359375 0.5859375 C9 1 9 1 11 3 C11.55086976 6.3970302 11.15907108 7.74666457 9.3125 10.6875 C6.84805229 13.15194771 5.42156499 14.33237756 2 15 C-0.8125 13.8125 -0.8125 13.8125 -3 12 C-3 11.01 -3 10.02 -3 9 C-1.906875 9.020625 -0.81375 9.04125 0.3125 9.0625 C3.94384191 9.18544452 3.94384191 9.18544452 7 8 C7 7.34 7 6.68 7 6 C6.01 5.67 5.02 5.34 4 5 C4 4.34 4 3.68 4 3 C3.01 2.67 2.02 2.34 1 2 C0.67 1.34 0.34 0.68 0 0 Z " fill="#BD7CF5" transform="translate(181,157)"/>
<path d="M0 0 C0 3.96 0 7.92 0 12 C-2.64 12.66 -5.28 13.32 -8 14 C-8.10807131 12.06372231 -8.1856225 10.12572244 -8.25 8.1875 C-8.29640625 7.10855469 -8.3428125 6.02960938 -8.390625 4.91796875 C-8 2 -8 2 -6.234375 0.05078125 C-4 -1 -4 -1 0 0 Z " fill="#9F72D2" transform="translate(206,174)"/>
<path d="M0 0 C1.22203125 -0.01675781 2.4440625 -0.03351563 3.703125 -0.05078125 C4.70859375 0.06910156 5.7140625 0.18898437 6.75 0.3125 C7.41 1.3025 8.07 2.2925 8.75 3.3125 C2.48 3.6425 -3.79 3.9725 -10.25 4.3125 C-10.25 4.9725 -10.25 5.6325 -10.25 6.3125 C-10.84167969 6.50585938 -11.43335938 6.69921875 -12.04296875 6.8984375 C-16.1646645 8.25664719 -20.2450524 9.63300585 -24.25 11.3125 C-21.47578396 5.0705139 -16.43572789 3.55311726 -10.44140625 1.21875 C-6.84638194 0.1978863 -3.73316205 0.01191435 0 0 Z " fill="#D5A2EF" transform="translate(176.25,157.6875)"/>
<path d="M0 0 C0.33 0 0.66 0 1 0 C1 6.6 1 13.2 1 20 C-1.97 20 -4.94 20 -8 20 C-8 17.03 -8 14.06 -8 11 C-2.25 9.875 -2.25 9.875 0 11 C0 7.37 0 3.74 0 0 Z " fill="#848587" transform="translate(407,200)"/>
<path d="M0 0 C0.99 0 1.98 0 3 0 C3 0.66 3 1.32 3 2 C3.66 2.33 4.32 2.66 5 3 C5.495 3.99 5.495 3.99 6 5 C-1.40407611 8.31040529 -7.89685131 9.38735479 -15.9375 9.375 C-16.75387939 9.37628906 -17.57025879 9.37757813 -18.41137695 9.37890625 C-22.70021445 9.3010159 -26.09442791 8.97251115 -30 7 C-30 6.67 -30 6.34 -30 6 C-29.41621582 6.01571045 -28.83243164 6.0314209 -28.23095703 6.04760742 C-25.52907405 6.11082028 -22.82734741 6.14925923 -20.125 6.1875 C-19.2071875 6.21263672 -18.289375 6.23777344 -17.34375 6.26367188 C-10.89965729 6.33174328 -4.94547518 5.65239618 1 3 C1.33 2.34 1.66 1.68 2 1 C1.34 0.67 0.68 0.34 0 0 Z " fill="#9062CB" transform="translate(197,241)"/>
<path d="M0 0 C2.96175123 0.61277612 4.38058783 1.25372522 7 3 C6.34 3 5.68 3 5 3 C4.67 5.64 4.34 8.28 4 11 C-1.75 13 -1.75 13 -4 13 C-4.49230769 5.73846154 -4.49230769 5.73846154 -2 2 C-1.34 1.34 -0.68 0.68 0 0 Z " fill="#CCCCCD" transform="translate(415,198)"/>
<path d="M0 0 C2.875 0.6875 2.875 0.6875 3.875 1.6875 C4.13793056 5.71910191 4.16904844 7.24642734 1.875 10.6875 C-1.25 10.875 -1.25 10.875 -4.125 10.6875 C-5.96332664 7.58532379 -6.59946226 5.29341321 -6.125 1.6875 C-3.125 -0.3125 -3.125 -0.3125 0 0 Z " fill="#E8D5F2" transform="translate(204.125,157.3125)"/>
<path d="M0 0 C1.32 0.33 2.64 0.66 4 1 C3.67 2.98 3.34 4.96 3 7 C3.61875 6.814375 4.2375 6.62875 4.875 6.4375 C7 6 7 6 9 7 C9 4.69 9 2.38 9 0 C9.33 0 9.66 0 10 0 C10 4.62 10 9.24 10 14 C7.69 14.33 5.38 14.66 3 15 C0.43383368 11.15075052 0.44902324 8.5650696 0 4 C-1.65 3.67 -3.3 3.34 -5 3 C-5 2.67 -5 2.34 -5 2 C-3.35 2 -1.7 2 0 2 C0 1.34 0 0.68 0 0 Z " fill="#B6B6B9" transform="translate(397,197)"/>
<path d="M0 0 C3.96 0 7.92 0 12 0 C11.67 0.66 11.34 1.32 11 2 C7.7 1.67 4.4 1.34 1 1 C1.33 3.97 1.66 6.94 2 10 C4.97 10.495 4.97 10.495 8 11 C8 13.31 8 15.62 8 18 C5.69 18.66 3.38 19.32 1 20 C0.11722245 15.48184719 -0.10589503 11.22487306 -0.0625 6.625 C-0.05347656 5.37976563 -0.04445313 4.13453125 -0.03515625 2.8515625 C-0.02355469 1.91054687 -0.01195312 0.96953125 0 0 Z " fill="#A5A5A8" transform="translate(333,192)"/>
<path d="M0 0 C1.17079102 0.01160156 1.17079102 0.01160156 2.36523438 0.0234375 C3.53022461 0.01183594 3.53022461 0.01183594 4.71875 0 C8.62825605 0.01346944 10.60720469 0.05975105 13.92773438 2.2734375 C13.92773438 2.9334375 13.92773438 3.5934375 13.92773438 4.2734375 C13.26773438 4.2734375 12.60773438 4.2734375 11.92773438 4.2734375 C11.59773438 4.9334375 11.26773438 5.5934375 10.92773438 6.2734375 C4.02006 5.90519751 -1.71037982 5.03425587 -8.07226562 2.2734375 C-5.45410824 -0.34471989 -3.56758224 0.01231262 0 0 Z " fill="#D093F3" transform="translate(174.072265625,160.7265625)"/>
<path d="M0 0 C1.7325 0.1546875 1.7325 0.1546875 3.5 0.3125 C5.5 3.3125 5.5 3.3125 5.1875 5.9375 C4.5 8.3125 4.5 8.3125 3.5 9.3125 C0.0625 9.5 0.0625 9.5 -3.5 9.3125 C-5.5 7.3125 -5.5 7.3125 -5.75 4.8125 C-5.33562907 0.66879066 -4.02091338 0.35901012 0 0 Z " fill="#CDCED1" transform="translate(323.5,179.6875)"/>
<path d="M0 0 C-0.33 3.96 -0.66 7.92 -1 12 C-3.97 11.67 -6.94 11.34 -10 11 C-10.375 8.3125 -10.375 8.3125 -10 5 C-6.50452612 1.34564094 -5.13689466 0 0 0 Z " fill="#D5D4D8" transform="translate(259,195)"/>
<path d="M0 0 C3.96 0 7.92 0 12 0 C11.67 0.66 11.34 1.32 11 2 C10.34 2 9.68 2 9 2 C9 2.66 9 3.32 9 4 C8.34 4 7.68 4 7 4 C7 3.34 7 2.68 7 2 C4.03 1.505 4.03 1.505 1 1 C1 4.63 1 8.26 1 12 C2.65 11.67 4.3 11.34 6 11 C6.66 11.33 7.32 11.66 8 12 C8.33 11.01 8.66 10.02 9 9 C9.05422947 10.4370809 9.09289723 11.87475462 9.125 13.3125 C9.14820313 14.11300781 9.17140625 14.91351563 9.1953125 15.73828125 C9 18 9 18 7 21 C6.67 19.02 6.34 17.04 6 15 C4.35 16.32 2.7 17.64 1 19 C-0.25433458 15.23699626 -0.10695422 11.72789091 -0.0625 7.8125 C-0.05798828 7.06291016 -0.05347656 6.31332031 -0.04882812 5.54101562 C-0.03706354 3.69397617 -0.01912865 1.84697787 0 0 Z " fill="#A8A9AD" transform="translate(364,192)"/>
<path d="M0 0 C1.8871875 0.061875 1.8871875 0.061875 3.8125 0.125 C4.4725 2.435 5.1325 4.745 5.8125 7.125 C4.8225 7.125 3.8325 7.125 2.8125 7.125 C2.4825 7.785 2.1525 8.445 1.8125 9.125 C-0.8275 8.465 -3.4675 7.805 -6.1875 7.125 C-6.5175 5.475 -6.8475 3.825 -7.1875 2.125 C-4.09861478 0.06574319 -3.47814073 -0.1140374 0 0 Z " fill="#E3E3E5" transform="translate(463.1875,191.875)"/>
<path d="M0 0 C0.86625 0.185625 1.7325 0.37125 2.625 0.5625 C6.05152628 1.00667933 8.64212371 0.71954492 12 0 C11.01 1.485 11.01 1.485 10 3 C10 3.66 10 4.32 10 5 C6.7 5.33 3.4 5.66 0 6 C0 6.99 0 7.98 0 9 C-3.3 9 -6.6 9 -10 9 C-10 8.01 -10 7.02 -10 6 C-8.72125 5.7525 -7.4425 5.505 -6.125 5.25 C-2.73252682 4.48009414 -2.73252682 4.48009414 -0.5 1.875 C-0.335 1.25625 -0.17 0.6375 0 0 Z " fill="#C0C0C2" transform="translate(383,192)"/>
<path d="M0 0 C1.32 0 2.64 0 4 0 C5.11446742 3.34340225 4.85175268 4.68260228 4.125 8.0625 C3.94195312 8.94035156 3.75890625 9.81820312 3.5703125 10.72265625 C3 13 3 13 2 15 C0.68 14.34 -0.64 13.68 -2 13 C-2.19294408 8.17639811 -1.75747614 4.50353262 0 0 Z " fill="#C3B2E1" transform="translate(208,202)"/>
<path d="M0 0 C0.66 0 1.32 0 2 0 C3.296875 2.01171875 3.296875 2.01171875 4.75 4.6875 C7.38925537 9.24504342 9.74387668 11.94669414 14 15 C14.88558594 15.75410156 14.88558594 15.75410156 15.7890625 16.5234375 C18.53759305 18.35902857 21.03583438 18.95383176 24.25 19.6875 C25.32765625 19.93886719 26.4053125 20.19023437 27.515625 20.44921875 C28.33546875 20.63097656 29.1553125 20.81273437 30 21 C27 23 27 23 25.08984375 23.00390625 C14.76505465 20.88648126 8.03537552 14.93520813 2.27734375 6.33203125 C1.09874931 4.18028544 0.44659885 2.39840125 0 0 Z " fill="#714AA6" transform="translate(149,214)"/>
<path d="M0 0 C0.99 0 1.98 0 3 0 C4 1 5 2 6 3 C6.99 3 7.98 3 9 3 C9.33 2.34 9.66 1.68 10 1 C11.32 2.98 12.64 4.96 14 7 C11 8 11 8 8 8 C7.34 7.67 6.68 7.34 6 7 C5.01 7.495 5.01 7.495 4 8 C4.66 8.33 5.32 8.66 6 9 C6.40729228 11.32156597 6.74438677 13.6568787 7 16 C2.99065908 12.68192476 1.27544982 8.94719931 0 4 C0 2.68 0 1.36 0 0 Z " fill="#4E1596" transform="translate(139,215)"/>
<path d="M0 0 C0.33 0 0.66 0 1 0 C1.33 3.3 1.66 6.6 2 10 C2.33 9.67 2.66 9.34 3 9 C4.99958364 8.95919217 7.00045254 8.95745644 9 9 C9.33 8.01 9.66 7.02 10 6 C9.51421457 9.12290635 9.0013988 11.99580359 8 15 C6.35 15 4.7 15 3 15 C2.34 16.32 1.68 17.64 1 19 C-0.66666667 19 -2.33333333 19 -4 19 C-3.51917969 18.49984375 -3.03835937 17.9996875 -2.54296875 17.484375 C-0.48034274 14.16328603 -0.43826912 11.05182084 -0.3125 7.25 C-0.26125977 6.20392578 -0.26125977 6.20392578 -0.20898438 5.13671875 C-0.12691705 3.42502892 -0.06177081 1.7125424 0 0 Z " fill="#6C46AD" transform="translate(197,177)"/>
<path d="M0 0 C1.32 0 2.64 0 4 0 C4.02689216 1.47906892 4.04634621 2.95827483 4.0625 4.4375 C4.07410156 5.26121094 4.08570313 6.08492187 4.09765625 6.93359375 C4 9 4 9 3 10 C1.00041636 10.04080783 -1.00045254 10.04254356 -3 10 C-3.33 10.99 -3.66 11.98 -4 13 C-4 10.03 -4 7.06 -4 4 C-3.01 3.67 -2.02 3.34 -1 3 C-0.67 2.01 -0.34 1.02 0 0 Z " fill="#9E82BE" transform="translate(228,164)"/>
<path d="M0 0 C2.31 0 4.62 0 7 0 C8.6415049 3.2830098 7.51888624 6.42545033 7 10 C4.66666667 10 2.33333333 10 0 10 C0 6.7 0 3.4 0 0 Z " fill="#D9D9DA" transform="translate(334,193)"/>
<path d="M0 0 C0.33 0 0.66 0 1 0 C1 3.63 1 7.26 1 11 C2.8871875 10.87625 2.8871875 10.87625 4.8125 10.75 C7.01953125 10.734375 7.01953125 10.734375 9 11 C11 13 11 13 12 15 C11.01 15 10.02 15 9 15 C9 15.66 9 16.32 9 17 C8.34 17 7.68 17 7 17 C6.67 17.66 6.34 18.32 6 19 C3 18 3 18 1.3125 15.6875 C-0.55187874 10.44948355 -0.24047028 5.50409759 0 0 Z " fill="#9795A0" transform="translate(248,195)"/>
<path d="M0 0 C0.33 1.32 0.66 2.64 1 4 C-0.65 4.99 -2.3 5.98 -4 7 C-2.35 7.33 -0.7 7.66 1 8 C-1.59482129 10.59482129 -3.39883625 10.69990302 -7 11 C-7.66 10.34 -8.32 9.68 -9 9 C-8.67 8.67 -8.34 8.34 -8 8 C-10.76223278 5.23776722 -13.20706617 5.42143709 -17 5 C-17 4.67 -17 4.34 -17 4 C-16.10796875 3.87882813 -15.2159375 3.75765625 -14.296875 3.6328125 C-12.54117188 3.38144531 -12.54117188 3.38144531 -10.75 3.125 C-9.58984375 2.96257812 -8.4296875 2.80015625 -7.234375 2.6328125 C-4.41806687 2.08179569 -2.44782443 1.44203518 0 0 Z " fill="#675692" transform="translate(195,224)"/>
<path d="M0 0 C0.99 1.485 0.99 1.485 2 3 C4.05925139 3.72382467 4.05925139 3.72382467 6 4 C6 3.34 6 2.68 6 2 C6.99 2.33 7.98 2.66 9 3 C8.01 5.31 7.02 7.62 6 10 C6.99 9.67 7.98 9.34 9 9 C9.66 9.66 10.32 10.32 11 11 C9.02 11.66 7.04 12.32 5 13 C0.17970402 9.14376321 0.17970402 9.14376321 -0.33203125 5.88671875 C-0.3145776 3.92143786 -0.16596091 1.95833873 0 0 Z " fill="#AEB0B2" transform="translate(285,202)"/>
<path d="M0 0 C0.99 0.33 1.98 0.66 3 1 C2.01 2.485 2.01 2.485 1 4 C0.54860541 6.0492094 0.54860541 6.0492094 0.375 8.1875 C0.25125 9.445625 0.1275 10.70375 0 12 C-1.99954746 12.04254356 -4.00041636 12.04080783 -6 12 C-7 11 -7 11 -7.3125 8.125 C-7 5 -7 5 -5.1875 3.0625 C-3 2 -3 2 0 3 C0 2.01 0 1.02 0 0 Z " fill="#BFBFC2" transform="translate(389,199)"/>
<path d="M0 0 C0.99 0 1.98 0 3 0 C3.33 0.66 3.66 1.32 4 2 C4.99 2.33 5.98 2.66 7 3 C5.948125 3.37125 4.89625 3.7425 3.8125 4.125 C-1.32254689 6.32870433 -3.98697239 9.78098713 -6.3125 14.875 C-6.539375 15.57625 -6.76625 16.2775 -7 17 C-8.33332095 14.3333581 -7.67102033 12.83319697 -7 10 C-9.97 9.505 -9.97 9.505 -13 9 C-8.25 5.125 -8.25 5.125 -6 4 C-6 4.66 -6 5.32 -6 6 C-5.01 6 -4.02 6 -3 6 C-3 5.34 -3 4.68 -3 4 C-2.01 4 -1.02 4 0 4 C0 2.68 0 1.36 0 0 Z " fill="#9F8AD0" transform="translate(225,157)"/>
<path d="M0 0 C0.99 0.33 1.98 0.66 3 1 C3.73046875 2.84765625 3.73046875 2.84765625 4.1875 5.0625 C4.34605469 5.79597656 4.50460938 6.52945313 4.66796875 7.28515625 C4.83232422 8.13400391 4.83232422 8.13400391 5 9 C5.66 8.34 6.32 7.68 7 7 C7.99 9.97 8.98 12.94 10 16 C9.34 16.66 8.68 17.32 8 18 C7.01 17.67 6.02 17.34 5 17 C3.96514123 14.68191636 2.9644586 12.34824702 2 10 C1.34 9.67 0.68 9.34 0 9 C0 6.03 0 3.06 0 0 Z " fill="#762EC0" transform="translate(149,201)"/>
<path d="M0 0 C0.66 1.32 1.32 2.64 2 4 C3.32 4 4.64 4 6 4 C6.66 2.68 7.32 1.36 8 0 C8.4726477 8.19256018 8.4726477 8.19256018 6.5 11.5625 C6.005 12.036875 5.51 12.51125 5 13 C3.68 12.67 2.36 12.34 1 12 C-0.3271261 8.0186217 -0.06915913 4.14954773 0 0 Z " fill="#A48EC9" transform="translate(167,200)"/>
<path d="M0 0 C3.875 1.875 3.875 1.875 5 3 C5.04092937 5.33297433 5.04241723 7.66705225 5 10 C4.34 9.67 3.68 9.34 3 9 C2.01 10.32 1.02 11.64 0 13 C-0.66 11.68 -1.32 10.36 -2 9 C-1.67 8.67 -1.34 8.34 -1 8 C-1.99 7.01 -2.98 6.02 -4 5 C-3.01 4.67 -2.02 4.34 -1 4 C-0.26676204 1.98491642 -0.26676204 1.98491642 0 0 Z " fill="#D8D8DA" transform="translate(310,197)"/>
<path d="M0 0 C0.33 0 0.66 0 1 0 C1 3.63 1 7.26 1 11 C-1.31 11 -3.62 11 -6 11 C-6 8.36 -6 5.72 -6 3 C-2.25 1.875 -2.25 1.875 0 3 C0 2.01 0 1.02 0 0 Z " fill="#9C9D9D" transform="translate(326,209)"/>
<path d="M0 0 C0.66 0.33 1.32 0.66 2 1 C2.05391993 2.79133978 2.09275571 4.58313899 2.125 6.375 C2.14820313 7.37273437 2.17140625 8.37046875 2.1953125 9.3984375 C2 12 2 12 0 14 C-2.5625 13.75 -2.5625 13.75 -5 13 C-6.4783226 10.04335481 -6.06032783 7.25770263 -6 4 C-5.67 4.99 -5.34 5.98 -5 7 C-3.02 6.67 -1.04 6.34 1 6 C0.67 4.02 0.34 2.04 0 0 Z " fill="#64468D" transform="translate(217,176)"/>
<path d="M0 0 C2.64 0 5.28 0 8 0 C8.33 1.32 8.66 2.64 9 4 C9.66 4 10.32 4 11 4 C11 4.66 11 5.32 11 6 C5.06 6.495 5.06 6.495 -1 7 C-0.67 4.69 -0.34 2.38 0 0 Z " fill="#D9C1F1" transform="translate(176,188)"/>
<path d="M0 0 C0.96661363 3.12180401 0.98988909 5.52083795 0.5625 8.75 C0.46066406 9.54921875 0.35882813 10.3484375 0.25390625 11.171875 C0.17011719 11.77515625 0.08632813 12.3784375 0 13 C0.763125 12.67 1.52625 12.34 2.3125 12 C5 11 5 11 8 11 C8 11.99 8 12.98 8 14 C9.32 14.66 10.64 15.32 12 16 C8.37673261 17.2077558 7.35853631 16.54311128 4 15 C4 15.66 4 16.32 4 17 C2.0625 16.625 2.0625 16.625 0 16 C-1.29758261 13.40483479 -1.13269102 11.45816973 -1.125 8.5625 C-1.12757813 7.59441406 -1.13015625 6.62632812 -1.1328125 5.62890625 C-1 3 -1 3 0 0 Z " fill="#959699" transform="translate(411,198)"/>
<path d="M0 0 C1.875 0.3125 1.875 0.3125 4 1 C6.67927341 5.01891012 6.15601248 7.24161923 6 12 C4.02 12 2.04 12 0 12 C-0.33 12.66 -0.66 13.32 -1 14 C-1.28232426 10.70621698 -1.17971335 9.28339413 0.625 6.4375 C1.07875 5.633125 1.5325 4.82875 2 4 C1.30859649 1.69712207 1.30859649 1.69712207 0 0 Z " fill="#C8C9CD" transform="translate(400,192)"/>
<path d="M0 0 C0 3 0 3 -1 6 C-1 6.99 -1 7.98 -1 9 C-1.66 9 -2.32 9 -3 9 C-2.938125 10.423125 -2.938125 10.423125 -2.875 11.875 C-3 15 -3 15 -5 17 C-5.33 16.67 -5.66 16.34 -6 16 C-6.66 16.99 -7.32 17.98 -8 19 C-7.75428474 11.25996945 -5.5769989 5.5769989 0 0 Z " fill="#AE52F0" transform="translate(160,182)"/>
<path d="M0 0 C2.3431213 0.25561323 4.67843403 0.59270772 7 1 C7.33 1.66 7.66 2.32 8 3 C9.88263881 3.90343684 9.88263881 3.90343684 12.0625 4.625 C12.79597656 4.88539063 13.52945313 5.14578125 14.28515625 5.4140625 C15.13400391 5.70410156 15.13400391 5.70410156 16 6 C15.34 6.66 14.68 7.32 14 8 C10.19996189 7.58652435 6.75346291 6.26936567 3.1875 4.9375 C2.21167969 4.57527344 1.23585937 4.21304688 0.23046875 3.83984375 C-0.50558594 3.56269531 -1.24164063 3.28554687 -2 3 C-1.34 2.01 -0.68 1.02 0 0 Z " fill="#4B328B" transform="translate(169,228)"/>
<path d="M0 0 C2.12577907 0.0868276 4.25069581 0.1949951 6.375 0.3125 C7.55835938 0.37050781 8.74171875 0.42851562 9.9609375 0.48828125 C10.96382812 0.65714844 11.96671875 0.82601562 13 1 C13.66 1.99 14.32 2.98 15 4 C14.01 4.99 13.02 5.98 12 7 C12.66 7.33 13.32 7.66 14 8 C12.35 8 10.7 8 9 8 C9 7.34 9 6.68 9 6 C6.69 5.01 4.38 4.02 2 3 C2 2.34 2 1.68 2 1 C1.34 0.67 0.68 0.34 0 0 Z " fill="#7D65BB" transform="translate(174,228)"/>
<path d="M0 0 C2.29013653 3.4352048 2.17842973 4.985331 2 9 C3.32 9.33 4.64 9.66 6 10 C6 10.66 6 11.32 6 12 C6.66 12 7.32 12 8 12 C8.33 11.34 8.66 10.68 9 10 C9 10.99 9 11.98 9 13 C7 14.6875 7 14.6875 5 16 C4.67 15.34 4.34 14.68 4 14 C3.01 14.33 2.02 14.66 1 15 C0.34 14.67 -0.32 14.34 -1 14 C-0.97679687 13.31292969 -0.95359375 12.62585938 -0.9296875 11.91796875 C-0.91164063 11.01691406 -0.89359375 10.11585938 -0.875 9.1875 C-0.85179687 8.29417969 -0.82859375 7.40085938 -0.8046875 6.48046875 C-0.81714173 3.74597286 -0.81714173 3.74597286 -3 1 C-2.01 0.67 -1.02 0.34 0 0 Z " fill="#A9AAAC" transform="translate(466,199)"/>
<path d="M0 0 C3.96 0 7.92 0 12 0 C10 3 10 3 7.375 3.6875 C6.59125 3.790625 5.8075 3.89375 5 4 C4.67 4.99 4.34 5.98 4 7 C2.68 6.67 1.36 6.34 0 6 C0 4.02 0 2.04 0 0 Z " fill="#EDEDEF" transform="translate(294,193)"/>
<path d="M0 0 C0 1.98 0 3.96 0 6 C-2.89234315 6.82638376 -4.88742431 7 -8 7 C-8 5.02 -8 3.04 -8 1 C-2.25 -1.125 -2.25 -1.125 0 0 Z " fill="#D4ADF7" transform="translate(192,175)"/>
<path d="M0 0 C-0.33 1.32 -0.66 2.64 -1 4 C-1.33 3.67 -1.66 3.34 -2 3 C-2.33 3.99 -2.66 4.98 -3 6 C-5.64 6.33 -8.28 6.66 -11 7 C-11 5.68 -11 4.36 -11 3 C-7.38854512 0.02586069 -4.5894956 -0.32019737 0 0 Z " fill="#BF6FF6" transform="translate(180,174)"/>
<path d="M0 0 C1.9375 0.75 1.9375 0.75 4 2 C4.75 4.125 4.75 4.125 5 6 C2.50935112 6.68707555 0.62113708 7 -2 7 C-2.33 7.66 -2.66 8.32 -3 9 C-3.66 9 -4.32 9 -5 9 C-5 7.35 -5 5.7 -5 4 C-4.34 4 -3.68 4 -3 4 C-3 3.34 -3 2.68 -3 2 C-2.01 1.34 -1.02 0.68 0 0 Z " fill="#B1A3CA" transform="translate(192,209)"/>
<path d="M0 0 C2.33944736 0.28730055 4.6739143 0.61936779 7 1 C6.01 1.33 5.02 1.66 4 2 C4 3.98 4 5.96 4 8 C2.68 8.33 1.36 8.66 0 9 C0.57344937 6.13275314 0.8614515 5.1385485 3 3 C1.783125 3.33 0.56625 3.66 -0.6875 4 C-3.87210604 4.80322213 -6.6972843 5.20641973 -10 5 C-9.34 4.01 -8.68 3.02 -8 2 C-5.67843403 1.59270772 -3.3431213 1.25561323 -1 1 C-0.67 0.67 -0.34 0.34 0 0 Z " fill="#B56EE4" transform="translate(177,171)"/>
<path d="M0 0 C1.670625 0.061875 1.670625 0.061875 3.375 0.125 C3.375 2.105 3.375 4.085 3.375 6.125 C0.735 6.125 -1.905 6.125 -4.625 6.125 C-5.25 4.25 -5.25 4.25 -5.625 2.125 C-3.625 0.125 -3.625 0.125 0 0 Z " fill="#E3D9ED" transform="translate(228.625,148.875)"/>
<path d="M0 0 C0.66 0.33 1.32 0.66 2 1 C-2.13377656 6.03242364 -8.65301242 8.84179059 -15 10 C-17.24907152 10.06790675 -19.50001605 10.08499984 -21.75 10.0625 C-22.92046875 10.05347656 -24.0909375 10.04445312 -25.296875 10.03515625 C-26.18890625 10.02355469 -27.0809375 10.01195312 -28 10 C-28 9.67 -28 9.34 -28 9 C-26.87464844 8.96132812 -26.87464844 8.96132812 -25.7265625 8.921875 C-15.81860948 8.37281967 -7.9966242 5.89224941 0 0 Z " fill="#AF94D2" transform="translate(204,227)"/>
<path d="M0 0 C0 0.66 0 1.32 0 2 C0.66 2.33 1.32 2.66 2 3 C-2.88077452 5.44038726 -5.52667068 6.46845421 -11 5 C-9.07089686 -0.78730941 -5.38986894 -0.20339128 0 0 Z " fill="#EBEBED" transform="translate(383,192)"/>
<path d="M0 0 C2.31 0 4.62 0 7 0 C7 2.31 7 4.62 7 7 C4.69 7 2.38 7 0 7 C0 4.69 0 2.38 0 0 Z " fill="#E7E7EB" transform="translate(320,193)"/>
<path d="M0 0 C0 2.64 0 5.28 0 8 C-1.175625 7.9690625 -1.175625 7.9690625 -2.375 7.9375 C-4.98114961 7.81315937 -4.98114961 7.81315937 -7 9 C-7.25 6.1875 -7.25 6.1875 -7 3 C-4.54157496 0.45680168 -3.57478534 0 0 0 Z " fill="#BD8EEA" transform="translate(205,173)"/>
<path d="M0 0 C0.99 0 1.98 0 3 0 C4.76462683 3.08809695 5 4.23312136 5 8 C3.35 8.33 1.7 8.66 0 9 C-0.33 7.68 -0.66 6.36 -1 5 C-1.99 5.33 -2.98 5.66 -4 6 C-4 5.01 -4 4.02 -4 3 C-3.01 3 -2.02 3 -1 3 C-0.67 2.01 -0.34 1.02 0 0 Z " fill="#9B9B9B" transform="translate(434,211)"/>
<path d="M0 0 C2.29109597 -0.08075665 4.58299267 -0.13907731 6.875 -0.1875 C8.78925781 -0.23970703 8.78925781 -0.23970703 10.7421875 -0.29296875 C11.81726563 -0.19628906 12.89234375 -0.09960938 14 0 C14.66 0.99 15.32 1.98 16 3 C10.06 3 4.12 3 -2 3 C-1.34 2.67 -0.68 2.34 0 2 C0 1.34 0 0.68 0 0 Z " fill="#E4BEF6" transform="translate(169,158)"/>
<path d="M0 0 C1.45922693 0.11409593 2.91740598 0.24165544 4.375 0.375 C5.59316406 0.47941406 5.59316406 0.47941406 6.8359375 0.5859375 C9 1 9 1 11 3 C11.125 5.625 11.125 5.625 11 8 C8.49642139 7.1654738 6.33214148 6.20628008 4 5 C4 4.34 4 3.68 4 3 C3.01 2.67 2.02 2.34 1 2 C0.67 1.34 0.34 0.68 0 0 Z " fill="#AD8CF4" transform="translate(181,157)"/>
<path d="M0 0 C0.33 0.99 0.66 1.98 1 3 C-0.24517965 4.13033298 -1.49636652 5.25405036 -2.75 6.375 C-3.44609375 7.00148437 -4.1421875 7.62796875 -4.859375 8.2734375 C-6.88181088 9.90467228 -8.56570641 11.09950928 -11 12 C-11.99 11.67 -12.98 11.34 -14 11 C-12 8 -12 8 -8.5 7.0625 C-4.94696479 6.4027733 -4.94696479 6.4027733 -3.75 4 C-3.5025 3.34 -3.255 2.68 -3 2 C-2.01 1.34 -1.02 0.68 0 0 Z " fill="#A983DB" transform="translate(215,233)"/>
<path d="M0 0 C0.66 0.33 1.32 0.66 2 1 C1.67 1.66 1.34 2.32 1 3 C0.84679619 4.39301984 0.72604374 5.78972825 0.625 7.1875 C0.18433513 11.65194079 -1.03509596 14.98476131 -3 19 C-3.66 18.67 -4.32 18.34 -5 18 C-4.74411938 15.7482505 -4.46972223 13.49859986 -4.1875 11.25 C-4.03667969 9.99703125 -3.88585937 8.7440625 -3.73046875 7.453125 C-3.0189332 4.08950239 -2.29462245 2.48950819 0 0 Z " fill="#957FB0" transform="translate(215,199)"/>
<path d="M0 0 C2.31 0.66 4.62 1.32 7 2 C6.43628586 5.26954202 5.50037734 6.82575883 3 9 C0.11749016 6.61879622 -0.61038985 4.70129644 -1 1 C-0.67 0.67 -0.34 0.34 0 0 Z " fill="#E0C9FC" transform="translate(189,189)"/>
<path d="M0 0 C-0.66 0.66 -1.32 1.32 -2 2 C-1.67 2.66 -1.34 3.32 -1 4 C-1.33 4.66 -1.66 5.32 -2 6 C-0.35 6 1.3 6 3 6 C3 6.33 3 6.66 3 7 C1.88625 7.28875 0.7725 7.5775 -0.375 7.875 C-4.00291092 8.69241329 -4.00291092 8.69241329 -6 11 C-6.99 10.01 -7.98 9.02 -9 8 C-8.67 7.34 -8.34 6.68 -8 6 C-6.02 6.495 -6.02 6.495 -4 7 C-4 6.01 -4 5.02 -4 4 C-4.66 3.67 -5.32 3.34 -6 3 C-6.33 2.01 -6.66 1.02 -7 0 C-3.86650268 -1.04449911 -3.01031744 -0.93423645 0 0 Z " fill="#A9A9AD" transform="translate(459,193)"/>
<path d="M0 0 C0.33 0 0.66 0 1 0 C1 5.94 1 11.88 1 18 C-2.08959548 13.88053936 -2.39722189 13.22754504 -2.3125 8.4375 C-2.30863281 7.48746094 -2.30476562 6.53742188 -2.30078125 5.55859375 C-2 3 -2 3 0 0 Z " fill="#A379E3" transform="translate(135,195)"/>
<path d="M0 0 C0 1.65 0 3.3 0 5 C-0.763125 5.2475 -1.52625 5.495 -2.3125 5.75 C-5.2364045 7.10995558 -6.30004356 8.31585826 -8 11 C-8.125 4.375 -8.125 4.375 -7 1 C-1.125 0 -1.125 0 0 0 Z " fill="#7B5D9E" transform="translate(232,173)"/>
<path d="M0 0 C0.1875 2.375 0.1875 2.375 0 5 C-3 7 -3 7 -7 7 C-7 5.02 -7 3.04 -7 1 C-4.53721199 -0.231394 -2.7204945 -0.07159196 0 0 Z " fill="#C0C0C2" transform="translate(359,204)"/>
<path d="M0 0 C0.33 0 0.66 0 1 0 C0.54177532 3.46941546 0.10868317 6.67395049 -1 10 C-1.66 10 -2.32 10 -3 10 C-3.33 11.98 -3.66 13.96 -4 16 C-5.5625 14.9375 -5.5625 14.9375 -7 13 C-6.6875 9.3125 -6.6875 9.3125 -6 6 C-5.34 6.66 -4.68 7.32 -4 8 C-3.34 6.02 -2.68 4.04 -2 2 C-1.34 2 -0.68 2 0 2 C0 1.34 0 0.68 0 0 Z " fill="#9957DA" transform="translate(141,184)"/>
<path d="M0 0 C3.06277267 0.14126626 6.12513542 0.28784396 9.1875 0.4375 C10.05181641 0.47681641 10.91613281 0.51613281 11.80664062 0.55664062 C15.95914122 0.76347016 19.94537862 1.00103531 24 2 C24 2.33 24 2.66 24 3 C20.93726169 3.05410136 17.87548548 3.09372225 14.8125 3.125 C13.51602539 3.15013672 13.51602539 3.15013672 12.19335938 3.17578125 C7.67791897 3.21038233 4.09918517 3.15567916 0 1 C0 0.67 0 0.34 0 0 Z " fill="#7F50C6" transform="translate(167,247)"/>
<path d="M0 0 C2.5 2.3125 2.5 2.3125 5 5 C5 5.99 5 6.98 5 8 C3.68 8 2.36 8 1 8 C0.67 8.99 0.34 9.98 0 11 C-0.99 10.01 -1.98 9.02 -3 8 C-2.01 5.36 -1.02 2.72 0 0 Z " fill="#A593C5" transform="translate(205,212)"/>
<path d="M0 0 C1.32 0.99 2.64 1.98 4 3 C3.67 4.65 3.34 6.3 3 8 C1.02 8 -0.96 8 -3 8 C-3.1875 5.125 -3.1875 5.125 -3 2 C-2.01 1.34 -1.02 0.68 0 0 Z " fill="#B3B3B3" transform="translate(323,204)"/>
<path d="M0 0 C1.98 0 3.96 0 6 0 C6.33 2.64 6.66 5.28 7 8 C5.02 8.33 3.04 8.66 1 9 C1 5 1 5 2.5 3.25 C2.995 2.8375 3.49 2.425 4 2 C2.68 1.34 1.36 0.68 0 0 Z " fill="#AD8BD9" transform="translate(211,174)"/>
<path d="M0 0 C1.32 1.65 2.64 3.3 4 5 C2.9024777 7.99324263 2.32317108 8.84610901 -0.625 10.25 C-1.40875 10.4975 -2.1925 10.745 -3 11 C-2.32829194 7.1936543 -1.27253436 3.64793184 0 0 Z " fill="#7D7D84" transform="translate(280,209)"/>
<path d="M0 0 C1.98 0 3.96 0 6 0 C6.33 1.65 6.66 3.3 7 5 C4 6 4 6 0 6 C0 4.02 0 2.04 0 0 Z " fill="#AEAFB0" transform="translate(445,205)"/>
<path d="M0 0 C1 2 1 2 0.0625 5.125 C-0.288125 6.07375 -0.63875 7.0225 -1 8 C-3.31 8.33 -5.62 8.66 -8 9 C-8 7.35 -8 5.7 -8 4 C-7.01 4 -6.02 4 -5 4 C-4.67 3.34 -4.34 2.68 -4 2 C-3.67 2.66 -3.34 3.32 -3 4 C-2.01 2.68 -1.02 1.36 0 0 Z " fill="#B5B5B8" transform="translate(419,202)"/>
<path d="M0 0 C-2 2 -2 2 -5.6875 2.25 C-10.76900203 2.72377807 -13.53798903 5.46225754 -17 9 C-15.64908907 4.57883696 -13.86882275 2.51923342 -10 0 C-6.34367999 -1.188304 -3.69898173 -0.95116673 0 0 Z " fill="#B564EB" transform="translate(171,176)"/>
<path d="M0 0 C4.08378283 0.74250597 8.01939223 1.82923301 12 3 C11 4.5625 11 4.5625 9 6 C6.23385218 5.96726452 3.73969453 5.49404328 1 5 C0.67 3.35 0.34 1.7 0 0 Z " fill="#672EB2" transform="translate(162,243)"/>
<path d="M0 0 C4.80172134 1.10808954 7.91161335 2.04686508 11 6 C11 6.66 11 7.32 11 8 C11.66 8 12.32 8 13 8 C13 8.66 13 9.32 13 10 C10 9 10 9 8 7 C7.195625 6.54625 6.39125 6.0925 5.5625 5.625 C2.98093321 3.98790886 1.65874664 2.53177119 0 0 Z " fill="#341477" transform="translate(156,223)"/>
<path d="M0 0 C1.32 0 2.64 0 4 0 C3.67 2.31 3.34 4.62 3 7 C1.35 7 -0.3 7 -2 7 C-1.125 1.125 -1.125 1.125 0 0 Z " fill="#BBA1D6" transform="translate(228,164)"/>
<path d="M0 0 C1.9375 0.625 1.9375 0.625 4 2 C4.9375 4.9375 4.9375 4.9375 5 8 C3.6875 9.875 3.6875 9.875 2 11 C1.34 11 0.68 11 0 11 C0 9.35 0 7.7 0 6 C0.66 6 1.32 6 2 6 C2 5.34 2 4.68 2 4 C1.34 3.67 0.68 3.34 0 3 C0 2.01 0 1.02 0 0 Z " fill="#CACBCD" transform="translate(467,193)"/>
<path d="M0 0 C0.33 0.66 0.66 1.32 1 2 C3.01669827 3.13350534 3.01669827 3.13350534 5 4 C4.01 5.485 4.01 5.485 3 7 C0.03 6.505 0.03 6.505 -3 6 C-3 4.35 -3 2.7 -3 1 C-2.01 0.67 -1.02 0.34 0 0 Z " fill="#CDCDCF" transform="translate(448,199)"/>
<path d="M0 0 C0.66 0 1.32 0 2 0 C3.40234375 2.08203125 3.40234375 2.08203125 4.9375 4.8125 C6.7314382 7.99203753 8.4243551 10.43973209 11 13 C11 13.66 11 14.32 11 15 C7.42521604 13.55767936 5.88918552 11.83879097 3.8125 8.625 C3.30332031 7.85414063 2.79414063 7.08328125 2.26953125 6.2890625 C1.08492721 4.15313029 0.45206553 2.38559884 0 0 Z " fill="#7545B5" transform="translate(149,214)"/>
<path d="M0 0 C0.2475 0.5775 0.495 1.155 0.75 1.75 C2.22157066 4.3988272 3.62967676 6.10374141 6 8 C8.66834966 8.33498301 8.66834966 8.33498301 11 8 C11 8.66 11 9.32 11 10 C7.37 10 3.74 10 0 10 C-1.00000429 5.99998285 -0.80688405 3.94476647 0 0 Z " fill="#757577" transform="translate(452,204)"/>
<path d="M0 0 C1.134375 0.020625 2.26875 0.04125 3.4375 0.0625 C3.7675 0.7225 4.0975 1.3825 4.4375 2.0625 C5.0975 2.3925 5.7575 2.7225 6.4375 3.0625 C3.10416667 3.72916667 -0.22916667 4.39583333 -3.5625 5.0625 C-4.125 3.125 -4.125 3.125 -4.5625 1.0625 C-3.5625 0.0625 -3.5625 0.0625 0 0 Z " fill="#F0EFF1" transform="translate(349.5625,192.9375)"/>
<path d="M0 0 C0.33 0.66 0.66 1.32 1 2 C0.01 2 -0.98 2 -2 2 C-2 2.66 -2 3.32 -2 4 C-2.66 4 -3.32 4 -4 4 C-4.33 4.66 -4.66 5.32 -5 6 C-5.99 5.67 -6.98 5.34 -8 5 C-8.33 4.01 -8.66 3.02 -9 2 C-5.5647952 -0.29013653 -4.014669 -0.17842973 0 0 Z " fill="#A5A5A9" transform="translate(259,208)"/>
<path d="M0 0 C0.33 0 0.66 0 1 0 C0.67 2.31 0.34 4.62 0 7 C-2.9375 6.25 -2.9375 6.25 -6 5 C-6.875 2.875 -6.875 2.875 -7 1 C-4 1 -4 1 -1 2 C-0.67 1.34 -0.34 0.68 0 0 Z " fill="#BCBDC0" transform="translate(474,204)"/>
<path d="M0 0 C2.97 0.99 5.94 1.98 9 3 C7.68 3.99 6.36 4.98 5 6 C4.67 5.34 4.34 4.68 4 4 C3.67 4.66 3.34 5.32 3 6 C1.35 5.67 -0.3 5.34 -2 5 C-1.34 3.35 -0.68 1.7 0 0 Z " fill="#633CA7" transform="translate(168,224)"/>
<path d="M0 0 C0.33 0.99 0.66 1.98 1 3 C3.42383077 4.16953416 3.42383077 4.16953416 6 5 C6.66 5.33 7.32 5.66 8 6 C6.60878255 8.7824349 4.69835788 9.55210065 2 11 C1.34 11 0.68 11 0 11 C0.66 9.02 1.32 7.04 2 5 C1.34 4.67 0.68 4.34 0 4 C0 2.68 0 1.36 0 0 Z " fill="#7F8081" transform="translate(419,208)"/>
<path d="M0 0 C0.33 0.66 0.66 1.32 1 2 C1.66 2 2.32 2 3 2 C3 2.99 3 3.98 3 5 C2.38125 5.12375 1.7625 5.2475 1.125 5.375 C-1.19120832 5.87197356 -1.19120832 5.87197356 -3 8 C-3.93423645 4.98968256 -4.04449911 4.13349732 -3 1 C-2.01 0.67 -1.02 0.34 0 0 Z " fill="#D6D7D7" transform="translate(386,197)"/>
<path d="M0 0 C0.99 0.33 1.98 0.66 3 1 C2.2575 1.721875 1.515 2.44375 0.75 3.1875 C-1.69290515 5.68592573 -3.8681047 8.23643202 -6 11 C-6.71484375 9.234375 -6.71484375 9.234375 -7 7 C-5.56640625 5.078125 -5.56640625 5.078125 -3.5625 3.25 C-2.90378906 2.63640625 -2.24507812 2.0228125 -1.56640625 1.390625 C-1.04949219 0.93171875 -0.53257812 0.4728125 0 0 Z " fill="#9F4ED6" transform="translate(161,178)"/>
<path d="M0 0 C2.97 0.495 2.97 0.495 6 1 C6 2.65 6 4.3 6 6 C3.69 5.34 1.38 4.68 -1 4 C-0.67 2.68 -0.34 1.36 0 0 Z " fill="#F9EAFE" transform="translate(212,166)"/>
<path d="M0 0 C0.33 0 0.66 0 1 0 C1 3.3 1 6.6 1 10 C2.65 10 4.3 10 6 10 C6.33 9.34 6.66 8.68 7 8 C7.66 9.32 8.32 10.64 9 12 C6.03 12 3.06 12 0 12 C0 8.04 0 4.08 0 0 Z " fill="#8B8C92" transform="translate(364,208)"/>
<path d="M0 0 C1.76462683 3.08809695 2 4.23312136 2 8 C-0.31 8.33 -2.62 8.66 -5 9 C-5 7 -5 7 -3 5 C-1.97695052 3.34738161 -0.97383946 1.68208635 0 0 Z " fill="#D3D4D5" transform="translate(357,196)"/>
<path d="M0 0 C0.53625 0.268125 1.0725 0.53625 1.625 0.8125 C1.125 2.6875 1.125 2.6875 -0.375 4.8125 C-3.02677645 5.79744554 -5.58047307 6.27162382 -8.375 6.8125 C-8.375 6.1525 -8.375 5.4925 -8.375 4.8125 C-3.19266704 -0.25205266 -3.19266704 -0.25205266 0 0 Z " fill="#929496" transform="translate(312.375,212.1875)"/>
<path d="M0 0 C0.99 0.33 1.98 0.66 3 1 C2.690625 2.11375 2.38125 3.2275 2.0625 4.375 C0.84199336 9.20509012 0.38600363 14.04290069 0 19 C-0.33 19 -0.66 19 -1 19 C-1.0272616 16.95840905 -1.04651345 14.91671037 -1.0625 12.875 C-1.07410156 11.73804688 -1.08570313 10.60109375 -1.09765625 9.4296875 C-1.005327 6.1870844 -0.61389906 3.18067388 0 0 Z " fill="#8649C1" transform="translate(157,191)"/>
<path d="M0 0 C2.31 0 4.62 0 7 0 C7 1.65 7 3.3 7 5 C6.401875 4.835 5.80375 4.67 5.1875 4.5 C2.88655664 3.8885876 2.88655664 3.8885876 0 4 C0 2.68 0 1.36 0 0 Z " fill="#E9E9ED" transform="translate(445,193)"/>
<path d="M0 0 C0.33 1.32 0.66 2.64 1 4 C-1.31 5.65 -3.62 7.3 -6 9 C-6.33 8.34 -6.66 7.68 -7 7 C-6.0625 4.375 -6.0625 4.375 -5 2 C-3.35 2.33 -1.7 2.66 0 3 C0 2.01 0 1.02 0 0 Z " fill="#5B3E88" transform="translate(205,189)"/>
<path d="M0 0 C0.33 0.99 0.66 1.98 1 3 C2.98 2.67 4.96 2.34 7 2 C7 3.65 7 5.3 7 7 C4.69 7 2.38 7 0 7 C0 4.69 0 2.38 0 0 Z " fill="#8565AE" transform="translate(211,180)"/>
<path d="M0 0 C0.99 0.99 1.98 1.98 3 3 C2.34 4.65 1.68 6.3 1 8 C0.67 7.34 0.34 6.68 0 6 C-2.64 6.33 -5.28 6.66 -8 7 C-8 6.34 -8 5.68 -8 5 C-6.865625 4.731875 -5.73125 4.46375 -4.5625 4.1875 C-3.386875 3.795625 -2.21125 3.40375 -1 3 C-0.67 2.01 -0.34 1.02 0 0 Z " fill="#B383E3" transform="translate(193,169)"/>
<path d="M0 0 C0.66 0.33 1.32 0.66 2 1 C0.90453883 2.48562542 -0.20168823 3.96331709 -1.3125 5.4375 C-1.92738281 6.26121094 -2.54226562 7.08492187 -3.17578125 7.93359375 C-5 10 -5 10 -8 11 C-8 7 -8 7 -6.25 5.078125 C-5.5075 4.47484375 -4.765 3.8715625 -4 3.25 C-3.2575 2.63640625 -2.515 2.0228125 -1.75 1.390625 C-1.1725 0.93171875 -0.595 0.4728125 0 0 Z " fill="#C487F0" transform="translate(153,165)"/>
<path d="M0 0 C0.33 0.66 0.66 1.32 1 2 C2.98 1.67 4.96 1.34 7 1 C7 1.99 7 2.98 7 4 C2.545 4.495 2.545 4.495 -2 5 C-1.34 3.35 -0.68 1.7 0 0 Z " fill="#D9CBE7" transform="translate(215,209)"/>
<path d="M0 0 C0.66 1.32 1.32 2.64 2 4 C3.65 4 5.3 4 7 4 C6.01 5.485 6.01 5.485 5 7 C4.34 7 3.68 7 3 7 C2.67 7.66 2.34 8.32 2 9 C1.34 8.67 0.68 8.34 0 8 C0 5.36 0 2.72 0 0 Z " fill="#513882" transform="translate(210,185)"/>
<path d="M0 0 C0.33 0.66 0.66 1.32 1 2 C1.99 2.33 2.98 2.66 4 3 C3.67 3.66 3.34 4.32 3 5 C3.185625 5.66 3.37125 6.32 3.5625 7 C3.706875 7.66 3.85125 8.32 4 9 C3.34 9.66 2.68 10.32 2 11 C0.68 10.34 -0.64 9.68 -2 9 C-1.34 9 -0.68 9 0 9 C0 6.03 0 3.06 0 0 Z " fill="#939396" transform="translate(306,202)"/>
<path d="M0 0 C1.65 0 3.3 0 5 0 C5.33 0.66 5.66 1.32 6 2 C5.67 2.99 5.34 3.98 5 5 C2.69 5 0.38 5 -2 5 C-1.34 3.35 -0.68 1.7 0 0 Z " fill="#D3D3D5" transform="translate(367,199)"/>
<path d="M0 0 C1.65 0 3.3 0 5 0 C5 1.32 5 2.64 5 4 C4.01 4.66 3.02 5.32 2 6 C1.34 5.67 0.68 5.34 0 5 C0 3.35 0 1.7 0 0 Z " fill="#EAEAEF" transform="translate(423,192)"/>
<path d="M0 0 C-0.75 5.75 -0.75 5.75 -3 8 C-3.99 6.35 -4.98 4.7 -6 3 C-3.375 0 -3.375 0 0 0 Z " fill="#9D9DA1" transform="translate(280,209)"/>
<path d="M0 0 C0.33 1.32 0.66 2.64 1 4 C-1.31 4.66 -3.62 5.32 -6 6 C-6 4.68 -6 3.36 -6 2 C-4.02 1.34 -2.04 0.68 0 0 Z " fill="#B1B1B2" transform="translate(340,206)"/>
<path d="M0 0 C0.66 0.66 1.32 1.32 2 2 C1.625 5.125 1.625 5.125 1 8 C0.01 8.33 -0.98 8.66 -2 9 C-2 8.34 -2 7.68 -2 7 C-2.66 6.67 -3.32 6.34 -4 6 C-3.67 4.35 -3.34 2.7 -3 1 C-2.67 1.66 -2.34 2.32 -2 3 C-1.34 3 -0.68 3 0 3 C0 2.01 0 1.02 0 0 Z " fill="#DECEF5" transform="translate(211,203)"/>
<path d="M0 0 C0.33 0.99 0.66 1.98 1 3 C1.66 3.33 2.32 3.66 3 4 C2.67 5.65 2.34 7.3 2 9 C1.34 8.67 0.68 8.34 0 8 C-0.66 8.99 -1.32 9.98 -2 11 C-1.85892253 9.54119891 -1.71197585 8.08296449 -1.5625 6.625 C-1.48128906 5.81289062 -1.40007812 5.00078125 -1.31640625 4.1640625 C-1 2 -1 2 0 0 Z " fill="#A24AE5" transform="translate(154,190)"/>
<path d="M0 0 C0.66 0.33 1.32 0.66 2 1 C1.34 2.65 0.68 4.3 0 6 C-1.32 6 -2.64 6 -4 6 C-4.33 7.65 -4.66 9.3 -5 11 C-5.68359375 9.234375 -5.68359375 9.234375 -6 7 C-4.78515625 5.078125 -4.78515625 5.078125 -3.0625 3.25 C-2.49660156 2.63640625 -1.93070313 2.0228125 -1.34765625 1.390625 C-0.90292969 0.93171875 -0.45820313 0.4728125 0 0 Z " fill="#B298DE" transform="translate(174,189)"/>
<path d="M0 0 C0.99 0.33 1.98 0.66 3 1 C1.68 4.96 0.36 8.92 -1 13 C-1.33 13 -1.66 13 -2 13 C-2.05416188 11.39620659 -2.09286638 9.79188594 -2.125 8.1875 C-2.14820313 7.29417969 -2.17140625 6.40085938 -2.1953125 5.48046875 C-2 3 -2 3 0 0 Z " fill="#A251E5" transform="translate(150,187)"/>
<path d="M0 0 C0.33 1.32 0.66 2.64 1 4 C0.34 4 -0.32 4 -1 4 C-1.12375 4.94875 -1.2475 5.8975 -1.375 6.875 C-2 10 -2 10 -4 12 C-3.67 8.7 -3.34 5.4 -3 2 C-2.01 2 -1.02 2 0 2 C0 1.34 0 0.68 0 0 Z " fill="#C58DF3" transform="translate(140,182)"/>
<path d="M0 0 C2.73230658 3.12263609 3.99848539 6.33977018 5.3515625 10.1953125 C5.98308528 12.06485952 5.98308528 12.06485952 7 14 C3.94438218 12.94633868 3.01775264 12.02789701 1.25 9.25 C-0.04143139 5.89227838 -0.25425628 3.55958794 0 0 Z " fill="#430F7E" transform="translate(150,208)"/>
<path d="M0 0 C1.9375 0.75 1.9375 0.75 4 2 C4.75 4.125 4.75 4.125 5 6 C4.01 6.33 3.02 6.66 2 7 C1.67 6.01 1.34 5.02 1 4 C-1.00016466 2.79117904 -1.00016466 2.79117904 -3 2 C-2.01 1.34 -1.02 0.68 0 0 Z " fill="#937EAE" transform="translate(192,209)"/>
<path d="M0 0 C1.32 0.33 2.64 0.66 4 1 C3.34 4.63 2.68 8.26 2 12 C1.67 12 1.34 12 1 12 C0.67 9.36 0.34 6.72 0 4 C-1.65 3.67 -3.3 3.34 -5 3 C-5 2.67 -5 2.34 -5 2 C-3.35 2 -1.7 2 0 2 C0 1.34 0 0.68 0 0 Z " fill="#9B9BA0" transform="translate(397,197)"/>
<path d="M0 0 C-0.66 0.66 -1.32 1.32 -2 2 C-2 2.66 -2 3.32 -2 4 C-3.98 4 -5.96 4 -8 4 C-8 3.01 -8 2.02 -8 1 C-4.93251126 -0.86240388 -3.40254489 -1.2151946 0 0 Z " fill="#B9B9BE" transform="translate(395,193)"/>
<path d="M0 0 C0 0.99 0 1.98 0 3 C1.98 3.66 3.96 4.32 6 5 C2.98968256 5.93423645 2.13349732 6.04449911 -1 5 C-1 3.68 -1 2.36 -1 1 C-1.66 1 -2.32 1 -3 1 C-3 1.99 -3 2.98 -3 4 C-4.32 3.67 -5.64 3.34 -7 3 C-4.49955934 -0.00052879 -4.2621484 0 0 0 Z " fill="#B487DF" transform="translate(187,184)"/>
<path d="M0 0 C2.64 0 5.28 0 8 0 C7.67 1.32 7.34 2.64 7 4 C5.02 4 3.04 4 1 4 C0.67 2.68 0.34 1.36 0 0 Z " fill="#DBB1FA" transform="translate(199,164)"/>
<path d="M0 0 C2.31 0 4.62 0 7 0 C7 1.32 7 2.64 7 4 C5.02 4 3.04 4 1 4 C0.67 2.68 0.34 1.36 0 0 Z " fill="#B3B3B4" transform="translate(382,207)"/>
<path d="M0 0 C2.1875 0.3125 2.1875 0.3125 4 1 C4 2.32 4 3.64 4 5 C1.69 5 -0.62 5 -3 5 C-3 3 -3 3 -1.75 1.3125 C-1.1725 0.879375 -0.595 0.44625 0 0 Z " fill="#B8B7B9" transform="translate(435,205)"/>
<path d="M0 0 C1.32 0.66 2.64 1.32 4 2 C3.67 2.66 3.34 3.32 3 4 C2.01 3.34 1.02 2.68 0 2 C-0.33 3.32 -0.66 4.64 -1 6 C-2.875 6.625 -2.875 6.625 -5 7 C-5.66 6.34 -6.32 5.68 -7 5 C-6.01 5 -5.02 5 -4 5 C-4 4.34 -4 3.68 -4 3 C-2 1.375 -2 1.375 0 0 Z " fill="#B2B2B4" transform="translate(310,195)"/>
<path d="M0 0 C3.96 0 7.92 0 12 0 C12 0.33 12 0.66 12 1 C11.31292969 1.10957031 10.62585938 1.21914062 9.91796875 1.33203125 C9.01691406 1.49058594 8.11585938 1.64914063 7.1875 1.8125 C6.29417969 1.96332031 5.40085938 2.11414063 4.48046875 2.26953125 C1.81678744 3.05395393 0.74309678 3.88627799 -1 6 C-0.67 4.02 -0.34 2.04 0 0 Z " fill="#9C85C8" transform="translate(176,194)"/>
<path d="M0 0 C2.31 0 4.62 0 7 0 C7 1.32 7 2.64 7 4 C5.02 4 3.04 4 1 4 C0.67 2.68 0.34 1.36 0 0 Z " fill="#EDECF0" transform="translate(432,193)"/>
<path d="M0 0 C1.98 0 3.96 0 6 0 C5.67 1.65 5.34 3.3 5 5 C3.35 4.67 1.7 4.34 0 4 C0 2.68 0 1.36 0 0 Z " fill="#EBEBED" transform="translate(334,193)"/>
<path d="M0 0 C0.66 0 1.32 0 2 0 C1.39009109 3.55780196 0.4216319 6.6828589 -1 10 C-1.66 10 -2.32 10 -3 10 C-2.49287967 6.28111761 -1.88391785 3.26545761 0 0 Z " fill="#7934C0" transform="translate(153,187)"/>
<path d="M0 0 C0.33 0.66 0.66 1.32 1 2 C2.32 2 3.64 2 5 2 C4.67 3.32 4.34 4.64 4 6 C2.35 6 0.7 6 -1 6 C-1.042721 4.33388095 -1.04063832 2.66617115 -1 1 C-0.67 0.67 -0.34 0.34 0 0 Z " fill="#C9B3E8" transform="translate(169,199)"/>
<path d="M0 0 C-0.99 1.485 -0.99 1.485 -2 3 C-2.61875 2.814375 -3.2375 2.62875 -3.875 2.4375 C-6.04160178 1.76313824 -6.04160178 1.76313824 -8 3 C-8 2.01 -8 1.02 -8 0 C-8.66 -0.33 -9.32 -0.66 -10 -1 C-6.06329512 -2.31223496 -3.87511856 -1.24296256 0 0 Z " fill="#572399" transform="translate(176,237)"/>
<path d="M0 0 C0.33 0.66 0.66 1.32 1 2 C1.66 2.33 2.32 2.66 3 3 C5 4 5 4 6 6 C2.62537285 5.45276317 0.91765 4.9451 -2 3 C-2 2.34 -2 1.68 -2 1 C-1.34 0.67 -0.68 0.34 0 0 Z " fill="#5C24B2" transform="translate(162,221)"/>
<path d="M0 0 C2.625 0.375 2.625 0.375 5 1 C5 1.99 5 2.98 5 4 C5.66 4 6.32 4 7 4 C7 4.66 7 5.32 7 6 C5.35 6 3.7 6 2 6 C2.66 4.68 3.32 3.36 4 2 C2.02 2 0.04 2 -2 2 C-1.34 1.34 -0.68 0.68 0 0 Z " fill="#E0C9FA" transform="translate(180,188)"/>
<path d="M0 0 C0.33 0.66 0.66 1.32 1 2 C2.65 1.34 4.3 0.68 6 0 C3.22719294 3.08089673 0.93673644 4.68775452 -3 6 C-1.125 1.125 -1.125 1.125 0 0 Z " fill="#604C87" transform="translate(199,226)"/>
<path d="M0 0 C0.33 0.99 0.66 1.98 1 3 C1.66 3.33 2.32 3.66 3 4 C1.625 6 1.625 6 0 8 C-0.66 8 -1.32 8 -2 8 C-2.33 6.68 -2.66 5.36 -3 4 C-2.34 4 -1.68 4 -1 4 C-0.67 2.68 -0.34 1.36 0 0 Z " fill="#B090D5" transform="translate(220,223)"/>
<path d="M0 0 C1.32 0.33 2.64 0.66 4 1 C3.67 1.99 3.34 2.98 3 4 C2.34 4 1.68 4 1 4 C0.34 5.98 -0.32 7.96 -1 10 C-2.46726798 6.18510326 -1.43336419 3.70988378 0 0 Z " fill="#A092BA" transform="translate(208,202)"/>
<path d="M0 0 C0.99 0.33 1.98 0.66 3 1 C2.67 1.99 2.34 2.98 2 4 C1.67 3.67 1.34 3.34 1 3 C0.01 4.32 -0.98 5.64 -2 7 C-2.66 5.68 -3.32 4.36 -4 3 C-2.1875 1.4375 -2.1875 1.4375 0 0 Z " fill="#C6C5C7" transform="translate(312,203)"/>
<path d="M0 0 C2.31 0 4.62 0 7 0 C6.67 0.99 6.34 1.98 6 3 C4.02 3.33 2.04 3.66 0 4 C0 2.68 0 1.36 0 0 Z " fill="#ECEDF1" transform="translate(365,193)"/>
<path d="M0 0 C1.65 0.33 3.3 0.66 5 1 C5 1.99 5 2.98 5 4 C3.35 4 1.7 4 0 4 C0 2.68 0 1.36 0 0 Z " fill="#F7DDFE" transform="translate(186,175)"/>
<path d="M0 0 C0.66 0.33 1.32 0.66 2 1 C2 2.65 2 4.3 2 6 C-0.50357861 5.1654738 -2.66785852 4.20628008 -5 3 C-5 2.67 -5 2.34 -5 2 C-3.35 2 -1.7 2 0 2 C0 1.34 0 0.68 0 0 Z " fill="#BA8EDF" transform="translate(190,159)"/>
<path d="M0 0 C2 2 2 2 2 7 C-1.3 6.67 -4.6 6.34 -8 6 C-8 5.67 -8 5.34 -8 5 C-5.36 5 -2.72 5 0 5 C0 3.35 0 1.7 0 0 Z " fill="#C2B1DD" transform="translate(232,150)"/>
<path d="M0 0 C1.33333333 0.66666667 2.66666667 1.33333333 4 2 C5.051875 2.495 6.10375 2.99 7.1875 3.5 C10 5 10 5 11 7 C5.95904225 6.55520961 3.58884285 4.33845847 0 1 C0 0.67 0 0.34 0 0 Z " fill="#53149D" transform="translate(151,236)"/>
<path d="M0 0 C0.99 0.33 1.98 0.66 3 1 C2.67 1.66 2.34 2.32 2 3 C2.66 3.33 3.32 3.66 4 4 C2.68 4.99 1.36 5.98 0 7 C-1.125 2.25 -1.125 2.25 0 0 Z " fill="#9B7ECB" transform="translate(216,228)"/>
<path d="M0 0 C0.99 0 1.98 0 3 0 C3 0.66 3 1.32 3 2 C3.99 1.67 4.98 1.34 6 1 C6 2.65 6 4.3 6 6 C3.69 5.01 1.38 4.02 -1 3 C-0.67 2.01 -0.34 1.02 0 0 Z " fill="#AF99C8" transform="translate(212,220)"/>
<path d="M0 0 C0.33 0 0.66 0 1 0 C1.25 2.3125 1.25 2.3125 1 5 C-1 6.8125 -1 6.8125 -3 8 C-3 4 -3 4 -2 2 C-1.34 2 -0.68 2 0 2 C0 1.34 0 0.68 0 0 Z " fill="#E3E4E4" transform="translate(291,195)"/>
<path d="M0 0 C0 1.32 0 2.64 0 4 C-1.65 4 -3.3 4 -5 4 C-5.33 4.99 -5.66 5.98 -6 7 C-6.66 6.67 -7.32 6.34 -8 6 C-7.34 5.01 -6.68 4.02 -6 3 C-5.34 3 -4.68 3 -4 3 C-4 2.34 -4 1.68 -4 1 C-2 0 -2 0 0 0 Z " fill="#A3A0A9" transform="translate(294,193)"/>
<path d="M0 0 C-0.33 2.97 -0.66 5.94 -1 9 C-1.33 9 -1.66 9 -2 9 C-2 7.02 -2 5.04 -2 3 C-2.99 3.33 -3.98 3.66 -5 4 C-5.33 3.01 -5.66 2.02 -6 1 C-4 0 -4 0 0 0 Z " fill="#AEADB5" transform="translate(259,195)"/>
<path d="M0 0 C0 0.99 0 1.98 0 3 C-0.99 3 -1.98 3 -3 3 C-2.67 3.99 -2.34 4.98 -2 6 C-3.65 6 -5.3 6 -7 6 C-5.81636731 2.44910192 -3.99368042 0 0 0 Z " fill="#EAD6FE" transform="translate(225,158)"/>
<path d="M0 0 C3.36591866 1.44253657 5.51047079 3.33264727 8 6 C2.25 4.125 2.25 4.125 0 3 C0 2.01 0 1.02 0 0 Z " fill="#783ABE" transform="translate(150,237)"/>
<path d="M0 0 C0.99 0.33 1.98 0.66 3 1 C0.6875 3.5 0.6875 3.5 -2 6 C-2.99 6 -3.98 6 -5 6 C-3.35 4.02 -1.7 2.04 0 0 Z " fill="#9877BB" transform="translate(210,234)"/>
<path d="M0 0 C1.98 0 3.96 0 6 0 C6 0.99 6 1.98 6 3 C3.92446352 3.5534764 2.15634036 4 0 4 C0 2.68 0 1.36 0 0 Z " fill="#B1B1B1" transform="translate(352,207)"/>
<path d="M0 0 C2.80722691 4.21084037 1.94537893 6.11554218 1 11 C0.01 11.495 0.01 11.495 -1 12 C-0.93489583 10.01432292 -0.86979167 8.02864583 -0.8046875 6.04296875 C-0.86745538 3.68640281 -0.86745538 3.68640281 -3 1 C-2.01 0.67 -1.02 0.34 0 0 Z " fill="#99989D" transform="translate(466,199)"/>
<path d="M0 0 C0.99 0.33 1.98 0.66 3 1 C2.43628586 4.26954202 1.50037734 5.82575883 -1 8 C-1.66 7.34 -2.32 6.68 -3 6 C-2.01 5.67 -1.02 5.34 0 5 C0 3.35 0 1.7 0 0 Z " fill="#C297E7" transform="translate(193,190)"/>
<path d="M0 0 C1.32 0.33 2.64 0.66 4 1 C3.01 1 2.02 1 1 1 C1 2.98 1 4.96 1 7 C-0.32 7.33 -1.64 7.66 -3 8 C-2.37240135 5.07120629 -1.41377341 2.63904371 0 0 Z " fill="#864ED8" transform="translate(180,172)"/>
<path d="M0 0 C0.66 0.33 1.32 0.66 2 1 C1.67 1.99 1.34 2.98 1 4 C-0.98 4 -2.96 4 -5 4 C-3 1 -3 1 0 0 Z " fill="#8D77BD" transform="translate(195,228)"/>
<path d="M0 0 C2.4375 0.375 2.4375 0.375 5 1 C5.33 1.66 5.66 2.32 6 3 C5.34 3.66 4.68 4.32 4 5 C3.01 4.67 2.02 4.34 1 4 C0.3125 1.9375 0.3125 1.9375 0 0 Z " fill="#6722B7" transform="translate(153,214)"/>
<path d="M0 0 C0.66 0 1.32 0 2 0 C2.66 0.99 3.32 1.98 4 3 C4.99 3.66 5.98 4.32 7 5 C4.69 5 2.38 5 0 5 C0 3.35 0 1.7 0 0 Z " fill="#8D8D91" transform="translate(320,215)"/>
<path d="M0 0 C2.5 2.3125 2.5 2.3125 5 5 C5 5.99 5 6.98 5 8 C3.02 7.01 1.04 6.02 -1 5 C-0.67 3.35 -0.34 1.7 0 0 Z " fill="#9989B8" transform="translate(205,212)"/>
<path d="M0 0 C0.66 0 1.32 0 2 0 C1.67 1.65 1.34 3.3 1 5 C-0.32 5 -1.64 5 -3 5 C-1.125 1.125 -1.125 1.125 0 0 Z " fill="#53397B" transform="translate(215,192)"/>
<path d="M0 0 C2.31 0 4.62 0 7 0 C7 0.66 7 1.32 7 2 C4.36 2.66 1.72 3.32 -1 4 C-0.67 2.68 -0.34 1.36 0 0 Z " fill="#8E64C0" transform="translate(199,184)"/>
<path d="M0 0 C1.65 0.33 3.3 0.66 5 1 C3.1875 2.5625 3.1875 2.5625 1 4 C0.01 3.67 -0.98 3.34 -2 3 C-1.34 2.01 -0.68 1.02 0 0 Z " fill="#A174D6" transform="translate(203,241)"/>
<path d="M0 0 C0.99 0.66 1.98 1.32 3 2 C2.67 2.66 2.34 3.32 2 4 C-1.0625 4.625 -1.0625 4.625 -4 5 C-4 4.01 -4 3.02 -4 2 C-2.68 1.34 -1.36 0.68 0 0 Z " fill="#49198B" transform="translate(166,234)"/>
<path d="M0 0 C1.98 0 3.96 0 6 0 C6.33 0.99 6.66 1.98 7 3 C4.69 3 2.38 3 0 3 C0 2.01 0 1.02 0 0 Z " fill="#BBBCBD" transform="translate(445,205)"/>
<path d="M0 0 C0 0.66 0 1.32 0 2 C-3.05263664 2.98120464 -4.94736336 2.98120464 -8 2 C-8 1.34 -8 0.68 -8 0 C-2.25 -1.125 -2.25 -1.125 0 0 Z " fill="#E3E4E6" transform="translate(395,197)"/>
<path d="M0 0 C0.94875 0.04125 1.8975 0.0825 2.875 0.125 C2.2975 0.351875 1.72 0.57875 1.125 0.8125 C-1.6913661 2.45538023 -3.20577114 4.52033227 -5.125 7.125 C-5.25 4.75 -5.25 4.75 -5.125 2.125 C-3.125 0.125 -3.125 0.125 0 0 Z " fill="#644B89" transform="translate(229.125,176.875)"/>
<path d="M0 0 C-1.25 1.5 -1.25 1.5 -3 3 C-4.32 3 -5.64 3 -7 3 C-6.67 2.01 -6.34 1.02 -6 0 C-3 -1 -3 -1 0 0 Z " fill="#DAAEF4" transform="translate(169,160)"/>
<path d="M0 0 C0.99 0 1.98 0 3 0 C3.33 0.66 3.66 1.32 4 2 C4.99 2.33 5.98 2.66 7 3 C4.69 3.66 2.38 4.32 0 5 C0 3.35 0 1.7 0 0 Z " fill="#8A72AE" transform="translate(225,157)"/>
</svg>
